<?xml version="1.0" standalone="no"?>
<!DOCTYPE svg PUBLIC "-//W3C//DTD SVG 1.1//EN" "http://www.w3.org/Graphics/SVG/1.1/DTD/svg11.dtd" >
<svg xmlns="http://www.w3.org/2000/svg">
<metadata>
This is a custom SVG webfont generated by Font Squirrel.
</metadata>
<defs>
<font id="webfontPsrcGzQc" horiz-adv-x="1552" >
<font-face units-per-em="2048" ascent="1536" descent="-512" />
<missing-glyph horiz-adv-x="630" />
<glyph unicode=" "  horiz-adv-x="630" />
<glyph unicode="&#x09;" horiz-adv-x="630" />
<glyph unicode="&#xa0;" horiz-adv-x="630" />
<glyph unicode="!" horiz-adv-x="538" d="M72 33v307q0 14 10 23.5t27 9.5h325q35 0 35 -33v-307q0 -33 -35 -33h-325q-16 0 -26.5 9.5t-10.5 23.5zM72 522v801q0 14 10 24.5t27 10.5h325q16 0 25.5 -10.5t9.5 -24.5v-801q0 -33 -35 -33h-325q-16 0 -26.5 9.5t-10.5 23.5z" />
<glyph unicode="&#x22;" horiz-adv-x="1077" d="M72 807v516q0 14 10 24.5t24 10.5h357q16 0 26.5 -10.5t10.5 -24.5v-330q0 -14 -7.5 -30.5t-17.5 -26.5l-145 -139q-10 -10 -27.5 -17.5t-32.5 -7.5h-164q-14 0 -24 9.5t-10 25.5zM584 807v516q0 14 10 24.5t27 10.5h356q14 0 24.5 -10.5t10.5 -24.5v-330q0 -33 -25 -57 l-143 -139q-10 -10 -27.5 -17.5t-34.5 -7.5h-161q-16 0 -26.5 9.5t-10.5 25.5z" />
<glyph unicode="#" horiz-adv-x="1564" d="M106 274v230q0 33 33 33h201v288h-201q-33 0 -33 31v231q0 33 33 33h201v207q0 10 11 20.5t26 10.5h231q14 0 23.5 -10.5t9.5 -20.5v-207h281v207q0 10 11 20.5t25 10.5h228q14 0 26.5 -10.5t12.5 -20.5v-207h198q16 0 26.5 -9t10.5 -24v-231q0 -14 -10 -22.5t-27 -8.5 h-198v-288h198q16 0 26.5 -9.5t10.5 -23.5v-230q0 -16 -10 -25t-27 -9h-198v-205q0 -14 -12.5 -23.5t-26.5 -9.5h-228q-14 0 -25 9t-11 24v205h-281v-205q0 -33 -33 -33h-231q-14 0 -25.5 9t-11.5 24v205h-201q-33 -1 -33 34zM641 537h281v288h-281v-288z" />
<glyph unicode="$" horiz-adv-x="1271" d="M47 344v90q0 14 10.5 23.5t26.5 9.5h309q35 0 35 -33v-28q0 -14 10.5 -23.5t26.5 -9.5h340q16 0 26.5 9t10.5 24v102q0 14 -10.5 23.5t-26.5 9.5h-508q-14 0 -31.5 7t-27.5 17l-164 158q-10 10 -18.5 26.5t-8.5 30.5v230q0 14 8 30.5t19 26.5l180 174q10 10 27.5 17.5 t33.5 7.5h105q14 0 24.5 9t10.5 23v48q0 14 10 23t24 9h291q14 0 24.5 -9t10.5 -23v-48q0 -14 10.5 -23t26.5 -9h104q14 0 32 -7.5t28 -17.5l182 -174q10 -10 17.5 -26.5t7.5 -30.5v-78q0 -14 -10.5 -24.5t-24.5 -10.5h-311q-14 0 -24.5 10.5t-10.5 24.5v16q0 14 -10.5 23.5 t-26.5 9.5h-340q-16 0 -26.5 -9t-10.5 -24v-82q0 -14 10.5 -24.5t26.5 -10.5h491q14 0 32 -7t28 -17l182 -172q10 -10 17.5 -26.5t7.5 -33.5v-231q0 -14 -7.5 -30.5t-17.5 -26.5l-178 -174q-10 -10 -27.5 -17.5t-31.5 -7.5h-109q-16 0 -26.5 -9t-10.5 -24v-45 q0 -16 -10 -25.5t-25 -9.5h-291q-14 0 -24 9.5t-10 25.5v45q0 14 -10.5 23.5t-24.5 9.5h-107q-16 0 -33.5 7t-27.5 18l-178 174q-10 10 -18.5 26.5t-8.5 30.5z" />
<glyph unicode="%" horiz-adv-x="1691" d="M90 1047q0 -68 25.5 -128.5t69.5 -105.5t103.5 -71.5t129.5 -26.5t129 26.5t104 71.5t71 105.5t26 128.5t-26 127t-71 103t-104.5 69.5t-128.5 25.5q-70 0 -129.5 -25.5t-103.5 -69.5t-69.5 -103t-25.5 -127zM307 1047q0 47 32 79.5t79 32.5t84 -32.5t37 -79.5t-37 -82 t-84 -35t-79 35t-32 82zM331 -11q-5 9 1 21l676 1336q4 16 19 25t30 9h246q14 0 22 -9t-4 -25l-674 -1336q-10 -12 -22.5 -21t-22.5 -9h-252q-14 0 -19 9zM926 305q0 -68 26.5 -129t71.5 -106t105.5 -72t130.5 -27q68 0 127 27t102 72t68.5 106.5t25.5 128.5 q0 68 -25.5 128.5t-68.5 105.5t-102.5 70.5t-126.5 25.5q-70 0 -130.5 -25.5t-105.5 -70.5t-71.5 -105.5t-26.5 -128.5zM1147 305q0 47 32.5 80t80.5 33q47 0 79.5 -33t32.5 -80t-32.5 -82t-79.5 -35t-80 35t-33 82z" />
<glyph unicode="&#x26;" horiz-adv-x="1746" d="M66 266v299q0 33 24 58l166 157q25 25 0 49l-37 35q-10 10 -17 26.5t-7 31.5v159q0 14 7 30.5t17 27.5l225 217q10 10 27.5 16t34.5 6l180 2h375q14 0 32.5 -7t28.5 -17l226 -217q10 -10 13 -19.5t3 -23.5v-121q0 -14 -10.5 -24.5t-26.5 -10.5h-336q-16 0 -26.5 10.5 t-10.5 24.5v45q0 23 -17 40t-42 17h-215q-25 0 -42 -17.5t-17 -39.5v-111q0 -23 17 -40t42 -17h977q35 0 35 -33l2 -272q0 -14 -10.5 -24.5t-24.5 -10.5h-98q-14 0 -24.5 -9t-10.5 -24v-205q0 -35 -25 -59l-225 -215q-10 -10 -28.5 -17.5t-33.5 -7.5h-841q-16 0 -33.5 7.5 t-28.5 17.5l-221 209q-10 10 -17 26.5t-7 30.5zM516 356q0 -23 17.5 -39t41.5 -16h437q25 0 42 16.5t17 38.5v123q0 14 -10 23.5t-25 9.5h-461q-25 0 -42 -16.5t-17 -38.5v-101z" />
<glyph unicode="'" horiz-adv-x="561" d="M53 795v516q0 16 10.5 25.5t24.5 9.5h356q16 0 26.5 -9.5t10.5 -25.5v-328q0 -14 -8 -31.5t-18 -27.5l-144 -140q-10 -10 -27.5 -17t-31.5 -7h-164q-14 0 -24.5 10.5t-10.5 24.5z" />
<glyph unicode="(" horiz-adv-x="796" d="M70 137v1080q0 16 7 32.5t17 26.5l228 215q10 10 27.5 17.5t31.5 7.5h321q14 0 24.5 -9.5t10.5 -23.5v-262q0 -14 -10 -24.5t-25 -10.5h-141q-25 0 -42 -16.5t-17 -39.5v-905q0 -23 17.5 -39t41.5 -16h141q14 0 24.5 -10t10.5 -25v-262q0 -14 -10 -23.5t-25 -9.5h-321 q-14 0 -31.5 6.5t-27.5 16.5l-228 217q-10 10 -17 26.5t-7 30.5z" />
<glyph unicode=")" horiz-adv-x="796" d="M74 -127v262q0 14 9 24.5t26 10.5h141q25 0 42 16.5t17 38.5v905q0 23 -17.5 39.5t-41.5 16.5h-141q-16 0 -25.5 10t-9.5 25v262q0 33 35 33h321q14 0 31.5 -7.5t27.5 -17.5l228 -215q10 -10 17 -26.5t7 -32.5v-1080q0 -14 -7 -30.5t-17 -26.5l-228 -217 q-10 -10 -27.5 -16.5t-31.5 -6.5h-321q-35 0 -35 33z" />
<glyph unicode="*" horiz-adv-x="753" d="M55 1190l49 149q4 10 15.5 15.5t23.5 1.5l125 -58q29 -10 25 19l-17 131q-2 12 6.5 21.5t20.5 9.5h164q33 0 29 -31l-17 -131q-2 -12 6.5 -17.5t18.5 0.5l125 58q29 10 39 -17l51 -147q10 -29 -23 -37l-135 -24q-29 -8 -8 -29l94 -96q10 -10 8 -21.5t-12 -17.5l-131 -92 q-10 -8 -22.5 -5.5t-18.5 13.5l-68 114q-6 10 -15 10.5t-15 -10.5l-66 -116q-14 -27 -43 -9l-131 91q-10 8 -12 19t8 22l94 96q18 23 -10 28l-135 25q-14 2 -20.5 12.5t-2.5 22.5z" />
<glyph unicode="+" horiz-adv-x="1206" d="M63 582v288q0 14 10.5 24.5t24.5 10.5h291q35 0 35 33v279q0 14 10 24t27 10h303q14 0 24.5 -10t10.5 -24v-213v-66q0 -14 10 -23.5t25 -9.5h290q16 0 25.5 -10t9.5 -25v-288q0 -35 -35 -35h-290q-14 0 -24.5 -9.5t-10.5 -25.5v-276q0 -14 -10.5 -24.5t-24.5 -10.5h-303 q-16 0 -26.5 10t-10.5 25v276q0 35 -35 35h-291q-14 0 -24.5 9.5t-10.5 25.5z" />
<glyph unicode="," horiz-adv-x="561" d="M78 31v331q0 33 33 33h354q33 0 33 -33v-331q0 -14 -4.5 -31.5t-12.5 -30.5l-102 -176q-6 -10 -20.5 -19.5t-30.5 -9.5h-95q-14 0 -22 9.5t-4 23.5l35 168q4 33 -29 33h-102q-33 0 -33 33z" />
<glyph unicode="-" horiz-adv-x="948" d="M74 580v284q0 14 10 24.5t25 10.5h749q14 0 24.5 -10t10.5 -25v-284q0 -14 -10.5 -23.5t-24.5 -9.5h-749q-14 0 -24.5 9.5t-10.5 23.5z" />
<glyph unicode="." horiz-adv-x="561" d="M72 33v327q0 14 10 24.5t24 10.5h351q14 0 24.5 -10t10.5 -25v-327q0 -16 -10.5 -25.5t-24.5 -9.5h-351q-14 0 -24 9.5t-10 25.5z" />
<glyph unicode="/" horiz-adv-x="913" d="M0 -129l494 1612q4 14 17 23.5t30 9.5h360q14 0 21.5 -9.5t3.5 -23.5l-494 -1612q-4 -12 -17.5 -21.5t-29.5 -9.5h-360q-14 0 -21.5 9.5t-3.5 21.5z" />
<glyph unicode="0" d="M66 274v807q0 14 7 30.5t17 27.5l227 217q10 10 27.5 17t32.5 7h813q16 0 33.5 -7t27.5 -17l215 -217q10 -10 18.5 -26.5t8.5 -31.5v-807q0 -16 -8 -32.5t-19 -26.5l-225 -215q-10 -10 -27.5 -17.5t-33.5 -7.5h-803q-14 0 -31.5 7.5t-28.5 17.5l-227 215q-10 10 -17 26.5 t-7 32.5zM520 385q0 -25 17.5 -41t42.5 -16h397q25 0 42 16t17 41v586q0 23 -17.5 40t-39.5 17h-2h-397q-25 0 -42.5 -17.5t-17.5 -39.5v-586z" />
<glyph unicode="1" horiz-adv-x="561" d="M68 33v1071q0 14 7 31.5t17 27.5l178 170q10 10 27.5 17.5t34.5 7.5h131q16 0 25.5 -10.5t9.5 -24.5v-1290q0 -35 -35 -35h-361q-14 0 -24 9.5t-10 25.5z" />
<glyph unicode="2" horiz-adv-x="1509" d="M63 33v512q0 14 8.5 30.5t18.5 26.5l225 215q10 10 27.5 17.5t32.5 7.5h555q25 0 41 17.5t16 39.5l2 84q0 23 -17.5 39t-41.5 16h-350q-25 0 -42.5 -16t-17.5 -39v-10q0 -14 -10 -24.5t-25 -10.5h-385q-16 0 -25 10t-9 25v137q-2 2 0 8q2 4 4 9.5t8 9.5l229 217 q10 10 27.5 17t32.5 7h766q16 0 33.5 -7t27.5 -17l225 -217q10 -10 17.5 -26.5t7.5 -31.5v-305q0 -10 -4 -19.5l-8 -19.5q-6 -14 -15 -18l-205 -197q-10 -10 -27.5 -17t-33.5 -7h-582q-25 0 -42 -13.5t-17 -36.5v-55q0 -23 17.5 -40t41.5 -17h838q16 0 26.5 -9.5t10.5 -23.5 v-268q0 -16 -10.5 -25.5t-26.5 -9.5h-1307q-16 0 -26.5 9.5t-10.5 25.5z" />
<glyph unicode="3" horiz-adv-x="1509" d="M53 274v134q0 14 10.5 24t24.5 10h385q14 0 24.5 -10t10.5 -24v-52q0 -23 17.5 -39t41.5 -16h394q25 0 42 16.5t17 38.5v129q0 23 -17.5 40.5t-41.5 17.5h-472q-16 0 -26 9t-10 23v240q0 14 10 23.5t26 9.5h453q25 0 41 17.5t16 39.5v115q0 25 -16 41t-41 16h-350 q-25 0 -41 -16.5t-19 -40.5v-45q0 -14 -9 -24.5t-25 -10.5h-383q-16 0 -26.5 10.5t-10.5 24.5v121q0 14 3 23t13 20l225 217q10 10 28 17t34 7h555h180q14 0 31.5 -7t28.5 -17l227 -217q10 -10 17 -26.5t7 -31.5v-241q0 -14 -7 -30.5t-17 -27.5l-37 -34q-10 -10 -10 -24.5 t10 -25.5l78 -75q10 -10 18 -26.5t8 -31.5v-299q0 -14 -8 -30.5t-18 -26.5l-221 -209q-10 -10 -27.5 -17.5t-32.5 -7.5h-798q-16 0 -34 7.5t-28 17.5l-225 215q-10 10 -17.5 27.5t-7.5 31.5z" />
<glyph unicode="4" horiz-adv-x="1380" d="M49 524v707q0 14 10.5 24.5t24.5 10.5h381q16 0 26.5 -10.5t10.5 -24.5v-332q0 -14 10 -24.5t27 -10.5h282q14 0 24.5 10.5t10.5 24.5v447q0 14 10.5 24t26.5 10h381q16 0 26.5 -10t10.5 -24v-1313q0 -14 -10.5 -24.5t-26.5 -10.5h-381q-16 0 -26.5 10t-10.5 25v424 q0 14 -10 24.5t-25 10.5h-282h-455q-14 0 -24.5 9t-10.5 23z" />
<glyph unicode="5" horiz-adv-x="1486" d="M74 238q-2 6 0 8v137q0 33 35 33h385q14 0 24 -9.5t10 -23.5v-10q0 -23 17.5 -40.5t42.5 -17.5h338h6q23 0 38 14.5t15 39.5v92q0 23 -15.5 38t-39.5 15h-510q-16 0 -33.5 6t-28.5 17l-225 217q-10 10 -17 26.5t-7 30.5v512q0 14 9 24.5t25 10.5h1190q14 0 24.5 -10.5 t10.5 -24.5v-285q0 -14 -10 -23t-25 -9h-725h-6q-23 0 -38 -15.5t-15 -38.5v-39q0 -51 53 -51h547q14 0 31.5 -7t27.5 -17l207 -197q6 -6 12 -18q12 -18 13 -39v-308q0 -35 -25 -59l-225 -215q-10 -10 -27.5 -17.5t-34.5 -7.5h-753q-14 0 -31.5 7.5t-28.5 17.5l-229 215 q-8 7 -12 21z" />
<glyph unicode="6" horiz-adv-x="1486" d="M63 1081q0 14 7.5 30.5t17.5 27.5l227 217q10 10 27.5 17t32.5 7h723q16 0 33.5 -7t27.5 -17l223 -217q10 -10 14.5 -24.5t4.5 -29.5v-110q0 -14 -10.5 -24.5t-26.5 -10.5h-383q-16 0 -26.5 10.5t-10.5 24.5v10q0 23 -17.5 39t-39.5 16h-328q-25 0 -42 -16t-17 -39v-84 q0 -25 17.5 -41t41.5 -16h588q16 0 33.5 -7.5t27.5 -17.5l193 -192q25 -25 24 -60v-293q0 -35 -24 -59l-225 -215q-10 -10 -28 -17.5t-34 -7.5h-737q-14 0 -31.5 7.5t-28.5 17.5l-227 215q-10 10 -17 26.5t-7 32.5zM477 385q0 -25 17.5 -48.5t42.5 -23.5h399q25 0 42 17.5 t17 40.5v108q0 25 -17 41.5t-42 16.5h-399q-25 0 -42.5 -16.5t-17.5 -41.5v-94z" />
<glyph unicode="7" horiz-adv-x="1337" d="M53 1026v297q0 14 10.5 24.5t26.5 10.5h1182q14 0 24.5 -10.5t10.5 -24.5v-311q0 -14 -6.5 -31.5t-16.5 -30.5l-428 -504q-10 -10 -15 -27.5t-5 -33.5v-352q0 -16 -10.5 -25.5t-26.5 -9.5h-353q-35 0 -34 35v463q0 14 6 32.5t16 28.5l375 410q20 25 -12 24h-707 q-16 0 -26.5 9.5t-10.5 25.5z" />
<glyph unicode="8" horiz-adv-x="1509" d="M63 274v287q0 14 7.5 30.5t17.5 26.5l84 80q25 25 0 50l-37 34q-10 10 -17 26.5t-7 31.5v241q0 14 7 30.5t17 27.5l225 217q10 10 28 17t34 7h686q16 0 33.5 -7t27.5 -17l226 -217q10 -10 17 -26.5t7 -31.5v-241q0 -14 -7 -30.5t-17 -27.5l-37 -34q-25 -25 0 -50l84 -80 q10 -10 17 -26.5t7 -30.5v-287q0 -35 -24 -59l-225 -215q-10 -10 -28 -17.5t-34 -7.5h-780q-16 0 -33.5 7.5t-28.5 17.5l-225 215q-25 24 -25 59zM510 356q0 -23 17.5 -39t41.5 -16h392q25 0 42 16.5t17 38.5v129q0 25 -17.5 41.5t-41.5 16.5h-392q-25 0 -42 -16.5 t-17 -41.5v-129zM537 905q0 -23 17 -40t42 -17h338q25 0 42 17.5t17 39.5v115q0 25 -17.5 41t-41.5 16h-338q-25 0 -42 -16.5t-17 -40.5v-115z" />
<glyph unicode="9" horiz-adv-x="1486" d="M72 268v113q0 14 10 23.5t24 9.5h386q14 0 24 -9.5t10 -23.5v-10q0 -23 17.5 -40.5t42.5 -17.5h375q25 0 42 17.5t17 40.5v80q0 23 -17.5 40t-41.5 17h-601q-16 0 -33.5 6t-27.5 16l-193 195q-10 10 -17 26.5t-7 30.5v299q0 14 7 30.5t17 27.5l226 217q10 10 27.5 17 t33.5 7h721q14 0 31.5 -7t28.5 -17l225 -217q10 -10 19 -26.5t9 -31.5v-807q0 -16 -8 -32.5t-18 -26.5l-225 -215q-10 -10 -28 -17.5t-32 -7.5h-743q-14 0 -31.5 7.5t-28.5 17.5l-223 215q-10 10 -14 24.5t-4 28.5zM512 872q0 -23 17.5 -39t41.5 -16h387q25 0 42.5 16.5 t17.5 38.5v123q0 25 -17.5 48.5t-42.5 23.5h-387q-25 0 -42 -17.5t-17 -39.5v-138z" />
<glyph unicode=":" horiz-adv-x="561" d="M74 33v329q0 14 10 23.5t27 9.5h350q14 0 24.5 -9t10.5 -24v-329q0 -14 -10.5 -23.5t-24.5 -9.5h-350q-16 0 -26.5 9.5t-10.5 23.5zM74 590v330q0 14 10 24t27 10h350q14 0 24.5 -10t10.5 -24v-330q0 -14 -10.5 -23.5t-24.5 -9.5h-350q-16 0 -26.5 9.5t-10.5 23.5z" />
<glyph unicode=";" horiz-adv-x="561" d="M70 590v330q0 14 10 24t24 10h351q16 0 26.5 -10t10.5 -24v-330q0 -14 -10.5 -23.5t-26.5 -9.5h-351q-14 0 -24 9.5t-10 23.5zM72 31v331q0 33 32 33h355q33 0 33 -33v-331q0 -14 -4.5 -31.5t-12.5 -30.5l-102 -176q-6 -10 -21.5 -19.5t-29.5 -9.5h-95q-14 0 -22 9.5 t-4 23.5l35 168q4 33 -29 33h-103q-32 0 -32 33z" />
<glyph unicode="&#x3c;" horiz-adv-x="991" d="M27 671.5q0 14.5 10 24.5l627 598q10 10 24 10.5t25 -10.5l211 -202q10 -10 10 -23.5t-10 -24.5l-367 -348q-10 -10 -10 -24.5t10 -24.5l367 -350q10 -10 10 -23.5t-10 -23.5l-211 -201q-10 -10 -24.5 -10t-24.5 10l-627 598q-10 10 -10 24.5z" />
<glyph unicode="=" horiz-adv-x="1185" d="M55 338v285q0 14 10.5 23t26.5 9h985q14 0 24.5 -9t10.5 -23v-285q0 -14 -10 -24.5t-25 -10.5h-985q-16 0 -26.5 10.5t-10.5 24.5zM55 829v285q0 14 10.5 23.5t26.5 9.5h985q14 0 24.5 -9.5t10.5 -23.5v-285q0 -14 -10 -24t-25 -10h-985q-16 0 -26.5 10t-10.5 24z" />
<glyph unicode="&#x3e;" horiz-adv-x="991" d="M51 273.5q0 13.5 10 23.5l367 350q10 10 10 24.5t-10 24.5l-367 348q-10 10 -10 23.5t10 24.5l211 202q10 10 24.5 10.5t25.5 -10.5l626 -598q10 -10 10 -24.5t-10 -24.5l-626 -598q-10 -10 -24.5 -10t-25.5 10l-211 201q-10 10 -10 23.5z" />
<glyph unicode="?" horiz-adv-x="1443" d="M55 975v76q0 14 8.5 45.5t18.5 42.5l215 217q10 10 27.5 17t33.5 7h742q16 0 33.5 -7t27.5 -17l225 -217q10 -10 17.5 -26.5t7.5 -31.5v-196q0 -18 -10 -39q-4 -8 -15 -19l-204 -196q-10 -10 -27.5 -17.5t-34.5 -7.5h-205q-25 0 -42 -16.5t-17 -40.5v-27q0 -14 -10 -23.5 t-27 -9.5h-348q-16 0 -26.5 9.5t-10.5 23.5v88q0 14 7.5 30.5t17.5 27.5l227 215q10 10 27.5 17t31.5 7h152q25 0 42 17.5t17 40.5v43q0 23 -17 39t-42 16h-328q-25 0 -41 -16.5t-16 -38.5v-33q0 -14 -10 -24.5t-27 -10.5h-383q-16 0 -26.5 10.5t-10.5 24.5zM449 33v305 q0 14 10 24.5t26 10.5h326q14 0 24.5 -10.5t10.5 -24.5v-305q0 -16 -10.5 -25.5t-24.5 -9.5h-326q-16 0 -26 9.5t-10 25.5z" />
<glyph unicode="@" horiz-adv-x="1886" d="M106 31v1011v37q0 16 7.5 32.5t17.5 27.5l16 24l84 82l105 103q10 14 26.5 21t30.5 7h33h1012h39q12 0 27.5 -7t25.5 -21l213 -209q10 -10 18 -26.5t8 -33.5v-37v-714v-37q0 -16 -8 -32.5t-18 -22.5l-213 -218q-10 -14 -27.5 -19t-25.5 -5h-801q-14 0 -25.5 8t-11.5 23 v772q0 14 11.5 23t25.5 9h498q14 0 25 -9t11 -23v-240q0 -12 -11 -21.5t-25 -9.5h-177q-10 0 -20 -7t-10 -23v-162q0 -14 10 -24.5t20 -10.5h369q23 0 40 18.5t17 40.5v637q0 23 -17 38.5t-40 15.5h-858q-25 0 -41 -15.5t-16 -38.5v-958v-6q0 -16 -12.5 -23.5t-26.5 -7.5 h-275q-31 0 -31 31z" />
<glyph unicode="A" horiz-adv-x="1572" d="M72 33v1048q0 14 7 30.5t17 27.5l226 217q10 10 27.5 17t33.5 7h827q14 0 32 -7t28 -17l217 -217q10 -10 17 -26.5t7 -31.5v-1048q0 -16 -10 -25.5t-24 -9.5h-371q-14 0 -24.5 9t-10.5 26v311q0 14 -10 24.5t-27 10.5h-481q-16 0 -26.5 -10.5t-10.5 -24.5v-311 q0 -16 -10 -25.5t-25 -9.5h-375q-34 0 -34 35zM516 780q0 -14 10.5 -24.5t26.5 -10.5h481q16 0 26.5 10.5t10.5 24.5v164q0 23 -17.5 39t-41.5 16h-437q-25 0 -42 -16t-17 -39v-164z" />
<glyph unicode="B" horiz-adv-x="1529" d="M63 33v1290q0 14 10.5 24.5t26.5 10.5h1006q14 0 31.5 -7.5t27.5 -17.5l226 -217q10 -10 18 -26.5t8 -30.5v-219q0 -14 -8 -30.5t-18 -27.5l-35 -34q-25 -25 0 -50l84 -80q10 -10 17 -26.5t7 -30.5v-264q0 -14 -7 -31.5t-17 -27.5l-228 -215q-10 -10 -27.5 -17.5 t-31.5 -7.5h-1053q-16 0 -26.5 9.5t-10.5 25.5zM463 356q0 -33 35 -32h452q25 0 42.5 16t17.5 39v106q0 25 -17.5 41.5t-42.5 16.5h-452q-35 0 -35 -35v-152zM463 883q0 -14 9 -24.5t26 -10.5h432q25 0 42 17.5t17 39.5v92q0 25 -17.5 41.5t-41.5 16.5h-432q-35 0 -35 -35 v-137z" />
<glyph unicode="C" horiz-adv-x="1466" d="M72 274v807q0 14 7 30.5t17 27.5l226 217q10 10 27.5 17t33.5 7h741q16 0 34 -7t28 -17l215 -217q10 -10 18 -26.5t8 -31.5v-120q0 -14 -10 -23.5t-26 -9.5h-383q-16 0 -26.5 9t-10.5 24v10q0 23 -16.5 40t-41.5 17h-327q-25 0 -42.5 -17.5t-17.5 -39.5v-586 q0 -25 17.5 -41t42.5 -16h327q25 0 41.5 16t16.5 41v23q0 14 10 23t27 9h383q16 0 26 -9t10 -23v-134q0 -16 -8 -32.5t-18 -26.5l-225 -215q-10 -10 -28 -17.5t-32 -7.5h-733q-16 0 -33.5 7.5t-27.5 17.5l-226 215q-24 24 -24 59z" />
<glyph unicode="D" horiz-adv-x="1529" d="M63 33v1290q0 14 10.5 24.5t24.5 10.5h1063q16 0 33.5 -7.5t28.5 -17.5l225 -217q10 -10 17.5 -26.5t7.5 -30.5v-762q0 -14 -7.5 -31.5t-17.5 -27.5l-225 -215q-10 -10 -27.5 -17.5t-34.5 -7.5h-1063q-14 0 -24.5 9.5t-10.5 25.5zM496 385q0 -35 34 -35h428 q25 0 42.5 16.5t17.5 41.5v540q0 23 -17.5 40.5t-42.5 17.5h-428q-16 0 -25 -10.5t-9 -24.5v-586z" />
<glyph unicode="E" horiz-adv-x="1380" d="M59 33v1290q0 14 10.5 24.5t24.5 10.5h1192q16 0 26.5 -10.5t10.5 -24.5v-285q0 -14 -10 -23t-27 -9h-760q-14 0 -24 -10.5t-10 -24.5v-97q0 -14 10 -23t24 -9h404q14 0 24.5 -10.5t10.5 -24.5v-258q0 -16 -10.5 -25.5t-24.5 -9.5h-404q-14 0 -24 -10t-10 -25v-94 q0 -16 10 -25.5t24 -9.5h760q16 0 26.5 -10t10.5 -25v-282q0 -16 -10 -25.5t-27 -9.5h-1192q-14 0 -24.5 9.5t-10.5 25.5z" />
<glyph unicode="F" horiz-adv-x="1357" d="M76 25v8v381v909v2v2v2q0 4 2 6q0 2 2 4v2l4 5l4 4q2 0 2 1t2 1v2q4 0 6 2h6q2 2 7 2h1167q16 0 26.5 -10.5t10.5 -24.5v-285q0 -14 -10.5 -23t-26.5 -9h-735q-16 0 -26.5 -10.5t-10.5 -24.5v-119q0 -14 10 -23.5t27 -9.5h401q16 0 25.5 -10t9.5 -25v-260q0 -33 -35 -32 h-401q-16 0 -26.5 -10.5t-10.5 -24.5v-424q0 -35 -35 -35h-360q-27 0 -35 27z" />
<glyph unicode="G" d="M59 274v33v371v371v32q0 14 8.5 30.5t18.5 27.5l225 217q10 10 27.5 17t34.5 7h35h745h37q14 0 31.5 -7t27.5 -17l109 -109l84 -84l24 -24q10 -10 17.5 -26.5t7.5 -31.5v-32v-27v-61q0 -14 -10.5 -23.5t-24.5 -9.5h-35h-313h-37q-14 0 -24.5 9t-10.5 24v6v4 q0 23 -17.5 40t-41.5 17h-402h-2q-23 0 -40 -17.5t-17 -39.5v-553v-33q0 -25 17.5 -41t39.5 -16h2h445q35 0 35 34v72q0 14 -9.5 24.5t-25.5 10.5h-156q-14 0 -24.5 9t-10.5 24v260q0 14 10.5 24.5t24.5 10.5h592q14 0 24.5 -10.5t10.5 -24.5v-729q0 -16 -10.5 -25.5 t-24.5 -9.5h-282q-20 0 -41 8l-17 8q-8 4 -16 11q-12 8 -27 16q-12 8 -29.5 8t-27.5 -10l-41 -39q-10 -10 -27.5 -17.5t-34.5 -7.5h-505h-35q-16 0 -33.5 7.5t-28.5 17.5l-225 215q-10 10 -18.5 26.5t-8.5 32.5z" />
<glyph unicode="H" d="M76 33v1272q0 29 10 41t25 12h374q16 0 26.5 -10.5t10.5 -24.5v-438q0 -14 10.5 -24.5t24.5 -10.5h444q14 0 24.5 10t10.5 25v438q0 14 10.5 24.5t26.5 10.5h375q14 0 24.5 -10.5t10.5 -24.5v-1290q0 -16 -10.5 -25.5t-24.5 -9.5h-375q-16 0 -26.5 9t-10.5 26v416 q0 14 -10 23t-25 9h-444q-14 0 -24.5 -9t-10.5 -23v-416q0 -16 -10 -25.5t-27 -9.5h-374q-14 0 -24.5 9.5t-10.5 25.5z" />
<glyph unicode="I" horiz-adv-x="575" d="M70 33v1290q0 14 10 24.5t24 10.5h361q16 0 26.5 -10.5t10.5 -24.5v-1290q0 -16 -10.5 -25.5t-26.5 -9.5h-361q-14 0 -24 9.5t-10 25.5z" />
<glyph unicode="J" horiz-adv-x="1423" d="M37 274v261q0 14 10 24t25 10h381q14 0 24 -10t10 -24v-150q0 -25 17.5 -41t42.5 -16h303q25 0 42 16t17 41v938q0 14 10.5 24.5t24.5 10.5h379q16 0 26.5 -10.5t10.5 -24.5v-1049q0 -16 -8.5 -32.5t-18.5 -26.5l-225 -215q-10 -10 -27.5 -17.5t-31.5 -7.5h-701 q-14 0 -31.5 7.5t-27.5 17.5l-228 215q-10 10 -17 26.5t-7 32.5z" />
<glyph unicode="K" horiz-adv-x="1681" d="M68 33v1290q0 14 10 24.5t26 10.5h365q14 0 24.5 -10.5t10.5 -24.5v-416q0 -14 8 -17t18 7l451 436q10 10 27.5 17.5t33.5 7.5h490q16 0 18 -7.5t-8 -17.5l-538 -508q-10 -10 -12.5 -24.5t7.5 -24.5l619 -751q6 -7 6 -14q0 -13 -20 -13h-463q-14 0 -30.5 8t-27.5 19 l-381 434q-10 10 -23 11t-24 -9l-112 -109q-10 -10 -17.5 -26.5t-7.5 -30.5v-262q0 -16 -10 -25.5t-25 -9.5h-379q-16 0 -26 9.5t-10 25.5z" />
<glyph unicode="L" horiz-adv-x="1314" d="M61 33v1290q0 14 9.5 24.5t25.5 10.5h361q16 0 25.5 -10.5t9.5 -24.5v-938q0 -16 10 -25.5t26 -9.5h727q16 0 25.5 -10t9.5 -25v-282q0 -35 -35 -35h-1159q-35 0 -35 35z" />
<glyph unicode="M" horiz-adv-x="1765" d="M78 33v1290q0 14 10 24.5t27 10.5h360q14 0 30.5 -8.5t24.5 -20.5l336 -440q8 -12 20.5 -12t20.5 12l336 440q8 12 24.5 20.5t30.5 8.5h361q16 0 26.5 -10.5t10.5 -24.5v-1290q0 -16 -10.5 -25.5t-26.5 -9.5h-361q-14 0 -24 9t-10 26v663q0 14 -6.5 16.5t-14.5 -10.5 l-334 -378q-10 -10 -22.5 -10.5t-22.5 10.5l-334 378q-8 12 -14 10.5t-6 -16.5v-663q0 -16 -10.5 -25.5t-24.5 -9.5h-360q-16 0 -26.5 9.5t-10.5 25.5zM752 453l6 -9zM1016 444l6 9z" />
<glyph unicode="N" d="M59 33v1290q0 14 10.5 24.5t26.5 10.5h361q14 0 30.5 -8.5t26.5 -20.5l528 -678q20 -25 21 8v664q0 14 10 24.5t27 10.5h360q14 0 24.5 -10.5t10.5 -24.5v-1290q0 -16 -10 -25.5t-25 -9.5h-360q-16 0 -31.5 8t-26.5 19l-528 677q-10 12 -16 10.5t-6 -16.5v-663 q0 -16 -10.5 -25.5t-24.5 -9.5h-361q-16 0 -26.5 9.5t-10.5 25.5z" />
<glyph unicode="O" horiz-adv-x="1595" d="M72 274v807q0 14 7 30.5t17 27.5l228 217q10 10 27.5 17t31.5 7h838q14 0 31.5 -7t27.5 -17l217 -217q10 -10 17.5 -26.5t7.5 -31.5v-807q0 -35 -25 -59l-225 -215q-10 -10 -27.5 -17.5t-34.5 -7.5h-827q-14 0 -31.5 7.5t-27.5 17.5l-228 215q-10 10 -17 26.5t-7 32.5z M528 385q0 -25 16.5 -41t41.5 -16h422q25 0 42 16t17 41v586q0 23 -17.5 40t-41.5 17h-422q-25 0 -41.5 -17.5t-16.5 -39.5v-586z" />
<glyph unicode="P" horiz-adv-x="1462" d="M78 33v362v928v6q6 29 35 29h360h627q14 0 31.5 -7.5t27.5 -17.5l227 -217q10 -10 17.5 -26.5t7.5 -30.5v-400q0 -16 -7 -32.5t-18 -26.5l-227 -215q-10 -10 -27.5 -17.5t-31.5 -7.5h-592v-327q0 -35 -35 -35h-360q-35 0 -35 35zM508 748q0 -16 10 -25.5t27 -9.5h352 q25 0 42 16t17 41v178q0 23 -17 40.5t-42 17.5h-352q-16 0 -26.5 -10.5t-10.5 -24.5v-113v-110z" />
<glyph unicode="Q" horiz-adv-x="1595" d="M74 274v807q0 14 7 30.5t17 27.5l228 217q10 10 27.5 17t31.5 7h838q14 0 31.5 -7t27.5 -17l217 -217q10 -10 17.5 -26.5t7.5 -31.5v-807q0 -35 -25 -59l-225 -215q-10 -10 -27.5 -17.5t-34.5 -7.5h-165q-16 0 -25.5 -10t-9.5 -24v-144q0 -14 -10.5 -23.5t-26.5 -9.5 h-361q-14 0 -24 9.5t-10 23.5v144q0 14 -10.5 24t-24.5 10h-160q-14 0 -31.5 7.5t-27.5 17.5l-228 215q-10 10 -17 26.5t-7 32.5zM528 385q0 -25 17.5 -41t42.5 -16h422q25 0 42 16t17 41v586q0 23 -17.5 40t-41.5 17h-422q-25 0 -42.5 -17.5t-17.5 -39.5v-586z" />
<glyph unicode="R" horiz-adv-x="1517" d="M68 33v33l2 1257v2q0 14 10 23.5t24 9.5h986q16 0 33.5 -7.5t27.5 -17.5l225 -217q10 -10 18.5 -26.5t8.5 -30.5v-354q0 -14 -8.5 -32t-18.5 -28l-153 -147q-10 -10 -12.5 -25.5t6.5 -28.5q2 -4 15 -24l33 -50l43 -67l48 -76l127 -200q4 -9 4 -15q0 -14 -23 -14h-387 q-14 0 -30.5 8t-24.5 21l-244 350q-8 12 -23.5 20.5t-31.5 8.5h-188q-14 0 -24.5 -9.5t-10.5 -23.5v-340q0 -16 -10.5 -25.5t-24.5 -9.5h-361q-16 0 -26 9.5t-10 25.5zM500 793q0 -14 10 -24.5t25 -10.5h376q16 0 25.5 10t9.5 25v178q0 14 -9 24.5t-26 10.5h-376 q-14 0 -24.5 -10.5t-10.5 -24.5v-178z" />
<glyph unicode="S" horiz-adv-x="1529" d="M74 305v88q0 14 10 24.5t25 10.5h385q14 0 24 -10t10 -25v-22q0 -23 17.5 -40.5t42.5 -17.5h375q25 0 42 17.5t17 40.5v88q0 23 -17.5 40t-41.5 17h-598q-14 0 -32 6t-28 17l-207 196l-12 19q-12 20 -12 41v286q0 14 7 30.5t17 27.5l228 217q10 10 27.5 17t31.5 7h791 q14 0 31.5 -7t27.5 -17l217 -217q10 -10 17.5 -42t7.5 -46v-76q0 -14 -10.5 -24.5t-24.5 -10.5h-385q-14 0 -24.5 10.5t-10.5 24.5v10q0 23 -17.5 39t-41.5 16h-375q-25 0 -42.5 -16t-17.5 -39v-65q0 -25 17.5 -41.5t42.5 -16.5h577q14 0 33 -7t29 -17l225 -215 q25 -25 25 -60v-289q0 -35 -25 -59l-225 -215q-10 -10 -27.5 -17.5t-34.5 -7.5h-780q-39 0 -59 25l-228 215q-16 16 -20 38.5t-4 51.5z" />
<glyph unicode="T" horiz-adv-x="1497" d="M41 1038v285q0 14 9 24.5t26 10.5h1343q14 0 24.5 -10.5t10.5 -24.5v-285q0 -14 -10 -23t-25 -9h-422q-14 0 -24 -10.5t-10 -24.5v-938q0 -16 -10.5 -25.5t-24.5 -9.5h-361q-16 0 -26.5 9t-10.5 26v938q0 14 -9 24.5t-25 10.5h-420q-35 -1 -35 32z" />
<glyph unicode="U" horiz-adv-x="1509" d="M63 274v1049q0 14 10.5 24.5t26.5 10.5h379q16 0 25.5 -10.5t9.5 -24.5v-938q0 -25 17.5 -41t41.5 -16h357q25 0 42 16t17 41v938q0 14 9.5 24.5t25.5 10.5h379q16 0 26.5 -10.5t10.5 -24.5v-1049q0 -16 -8.5 -32.5t-18.5 -26.5l-225 -215q-10 -10 -27.5 -17.5 t-34.5 -7.5h-749q-16 0 -33.5 7.5t-28.5 17.5l-225 215q-10 10 -18.5 26.5t-8.5 32.5z" />
<glyph unicode="V" horiz-adv-x="1513" d="M-53 1325q-2 8 -3 14q0 19 25 19h408q35 0 49 -33l303 -858q4 -12 12.5 -12t12.5 12l303 858q14 33 49 33h407q14 0 21 -9q3 -5 3 -11t-3 -13l-539 -1296q-6 -12 -20 -21.5t-31 -9.5h-407q-14 0 -28.5 9t-21.5 22z" />
<glyph unicode="W" horiz-adv-x="2048" d="M66 1323l-2 8q0 9 7 17q9 10 23 10h361q16 0 27.5 -10.5t15.5 -24.5l149 -786q4 -33 15 0l190 731q4 14 16.5 23t26.5 9h283q14 0 26.5 -9t16.5 -23l192 -731q6 -33 14 0l150 786q2 14 13.5 24.5t27.5 10.5h360q16 0 25 -10q5 -7 5 -16q0 -4 -1 -9l-272 -1292 q-8 -33 -43 -33h-443q-16 0 -28.5 9t-16.5 24l-157 508q-10 31 -21 0l-156 -508q-4 -14 -17 -23.5t-30 -9.5h-442q-35 0 -43 33z" />
<glyph unicode="X" horiz-adv-x="1875" d="M54 10q0 7 7 15l531 641q10 10 9 25.5t-11 25.5l-502 614q-10 10 -6 18.5t18 8.5h490q16 0 32.5 -8.5t26.5 -18.5l269 -330q10 -10 23 -9t24 12l254 327q10 10 26.5 18.5t30.5 8.5h489q16 0 19.5 -8.5t-6.5 -18.5l-486 -610q-10 -10 -10 -25.5t10 -25.5l535 -645 q7 -7 7 -14q0 -3 -1 -5q-4 -8 -21 -8h-493q-14 0 -30.5 8t-26.5 19l-297 364q-23 25 -47 0l-291 -364q-10 -10 -27.5 -18.5t-32.5 -8.5h-493q-20 0 -20 12z" />
<glyph unicode="Y" horiz-adv-x="1712" d="M26 1349q5 9 19 9h455q16 0 31.5 -9.5t23.5 -21.5l287 -506q18 -29 37 0l288 506q8 12 22.5 21.5t31.5 9.5h454q16 0 21 -9q1 -3 1 -7q0 -6 -5 -13l-574 -921q-8 -10 -13 -29t-5 -33v-313q0 -16 -10.5 -25.5t-24.5 -9.5h-408q-16 0 -26 9t-10 26v313q0 14 -5.5 32.5 t-13.5 29.5l-573 921q-5 6 -5 12q0 4 2 8z" />
<glyph unicode="Z" horiz-adv-x="1572" d="M78 33v198q0 14 7 31t17 27l711 692q10 10 7 17.5t-17 7.5h-668q-14 0 -24.5 9t-10.5 23v285q0 14 10.5 24.5t24.5 10.5h1303q16 0 25.5 -10.5t9.5 -24.5v-207q0 -14 -7.5 -30.5t-17.5 -26.5l-711 -684q-25 -25 11 -25h720q14 0 24.5 -10t10.5 -25v-282q0 -16 -10 -25.5 t-25 -9.5h-1353q-16 0 -26.5 9.5t-10.5 25.5z" />
<glyph unicode="[" horiz-adv-x="796" d="M61 -127v1610q0 14 10.5 23.5t24.5 9.5h578q16 0 26.5 -9.5t10.5 -23.5v-285q0 -14 -10.5 -23.5t-26.5 -9.5h-180q-14 0 -24.5 -10t-10.5 -25v-905q0 -14 10 -24.5t25 -10.5h204q35 0 35 -32v-285q0 -33 -35 -33h-602q-14 0 -24.5 9.5t-10.5 23.5z" />
<glyph unicode="\" horiz-adv-x="948" d="M49 1483q-4 14 3 23.5t24 9.5h360q14 0 27.5 -9.5t17.5 -23.5l494 -1612q4 -12 -3 -21.5t-22 -9.5h-360q-16 0 -28.5 9.5t-16.5 21.5z" />
<glyph unicode="]" horiz-adv-x="819" d="M70 1198v285q0 14 10 23.5t26 9.5h603q14 0 24 -9.5t10 -23.5v-1610q0 -14 -10 -23.5t-24 -9.5h-580q-14 0 -24.5 9.5t-10.5 23.5v285q0 14 10.5 23t24.5 9h182q14 0 24.5 10.5t10.5 24.5v905q0 14 -10 24.5t-25 10.5h-205q-16 0 -26 9.5t-10 23.5z" />
<glyph unicode="_" horiz-adv-x="1572" d="M76 33v282q0 14 10 24.5t25 10.5h1364q16 0 26 -10t10 -25v-282q0 -16 -10 -25.5t-26 -9.5h-1364q-14 0 -24.5 9.5t-10.5 25.5z" />
<glyph unicode="`" horiz-adv-x="581" d="M61 1642v267q0 14 9.5 19t21.5 -3l414 -227q12 -8 21.5 -22.5t9.5 -28.5v-140q0 -14 -10.5 -20t-24.5 -2l-406 114q-14 4 -24.5 16.5t-10.5 26.5z" />
<glyph unicode="a" horiz-adv-x="1572" d="M72 33v1048q0 14 7 30.5t17 27.5l226 217q10 10 27.5 17t33.5 7h827q14 0 32 -7t28 -17l217 -217q10 -10 17 -26.5t7 -31.5v-1048q0 -16 -10 -25.5t-24 -9.5h-371q-14 0 -24.5 9t-10.5 26v311q0 14 -10 24.5t-27 10.5h-481q-16 0 -26.5 -10.5t-10.5 -24.5v-311 q0 -16 -10 -25.5t-25 -9.5h-375q-34 0 -34 35zM516 780q0 -14 10.5 -24.5t26.5 -10.5h481q16 0 26.5 10.5t10.5 24.5v164q0 23 -17.5 39t-41.5 16h-437q-25 0 -42 -16t-17 -39v-164z" />
<glyph unicode="b" horiz-adv-x="1529" d="M63 33v1290q0 14 10.5 24.5t26.5 10.5h1006q14 0 31.5 -7.5t27.5 -17.5l226 -217q10 -10 18 -26.5t8 -30.5v-219q0 -14 -8 -30.5t-18 -27.5l-35 -34q-25 -25 0 -50l84 -80q10 -10 17 -26.5t7 -30.5v-264q0 -14 -7 -31.5t-17 -27.5l-228 -215q-10 -10 -27.5 -17.5 t-31.5 -7.5h-1053q-16 0 -26.5 9.5t-10.5 25.5zM463 356q0 -33 35 -32h452q25 0 42.5 16t17.5 39v106q0 25 -17.5 41.5t-42.5 16.5h-452q-35 0 -35 -35v-152zM463 883q0 -14 9 -24.5t26 -10.5h432q25 0 42 17.5t17 39.5v92q0 25 -17.5 41.5t-41.5 16.5h-432q-35 0 -35 -35 v-137z" />
<glyph unicode="c" horiz-adv-x="1466" d="M72 274v807q0 14 7 30.5t17 27.5l226 217q10 10 27.5 17t33.5 7h741q16 0 34 -7t28 -17l215 -217q10 -10 18 -26.5t8 -31.5v-120q0 -14 -10 -23.5t-26 -9.5h-383q-16 0 -26.5 9t-10.5 24v10q0 23 -16.5 40t-41.5 17h-327q-25 0 -42.5 -17.5t-17.5 -39.5v-586 q0 -25 17.5 -41t42.5 -16h327q25 0 41.5 16t16.5 41v23q0 14 10 23t27 9h383q16 0 26 -9t10 -23v-134q0 -16 -8 -32.5t-18 -26.5l-225 -215q-10 -10 -28 -17.5t-32 -7.5h-733q-16 0 -33.5 7.5t-27.5 17.5l-226 215q-24 24 -24 59z" />
<glyph unicode="d" horiz-adv-x="1529" d="M63 33v1290q0 14 10.5 24.5t24.5 10.5h1063q16 0 33.5 -7.5t28.5 -17.5l225 -217q10 -10 17.5 -26.5t7.5 -30.5v-762q0 -14 -7.5 -31.5t-17.5 -27.5l-225 -215q-10 -10 -27.5 -17.5t-34.5 -7.5h-1063q-14 0 -24.5 9.5t-10.5 25.5zM496 385q0 -35 34 -35h428 q25 0 42.5 16.5t17.5 41.5v540q0 23 -17.5 40.5t-42.5 17.5h-428q-16 0 -25 -10.5t-9 -24.5v-586z" />
<glyph unicode="e" horiz-adv-x="1380" d="M59 33v1290q0 14 10.5 24.5t24.5 10.5h1192q16 0 26.5 -10.5t10.5 -24.5v-285q0 -14 -10 -23t-27 -9h-760q-14 0 -24 -10.5t-10 -24.5v-97q0 -14 10 -23t24 -9h404q14 0 24.5 -10.5t10.5 -24.5v-258q0 -16 -10.5 -25.5t-24.5 -9.5h-404q-14 0 -24 -10t-10 -25v-94 q0 -16 10 -25.5t24 -9.5h760q16 0 26.5 -10t10.5 -25v-282q0 -16 -10 -25.5t-27 -9.5h-1192q-14 0 -24.5 9.5t-10.5 25.5z" />
<glyph unicode="f" horiz-adv-x="1357" d="M76 25v8v381v909v2v2v2q0 4 2 6q0 2 2 4v2l4 5l4 4q2 0 2 1t2 1v2q4 0 6 2h6q2 2 7 2h1167q16 0 26.5 -10.5t10.5 -24.5v-285q0 -14 -10.5 -23t-26.5 -9h-735q-16 0 -26.5 -10.5t-10.5 -24.5v-119q0 -14 10 -23.5t27 -9.5h401q16 0 25.5 -10t9.5 -25v-260q0 -33 -35 -32 h-401q-16 0 -26.5 -10.5t-10.5 -24.5v-424q0 -35 -35 -35h-360q-27 0 -35 27z" />
<glyph unicode="g" d="M59 274v33v371v371v32q0 14 8.5 30.5t18.5 27.5l225 217q10 10 27.5 17t34.5 7h35h745h37q14 0 31.5 -7t27.5 -17l109 -109l84 -84l24 -24q10 -10 17.5 -26.5t7.5 -31.5v-32v-27v-61q0 -14 -10.5 -23.5t-24.5 -9.5h-35h-313h-37q-14 0 -24.5 9t-10.5 24v6v4 q0 23 -17.5 40t-41.5 17h-402h-2q-23 0 -40 -17.5t-17 -39.5v-553v-33q0 -25 17.5 -41t39.5 -16h2h445q35 0 35 34v72q0 14 -9.5 24.5t-25.5 10.5h-156q-14 0 -24.5 9t-10.5 24v260q0 14 10.5 24.5t24.5 10.5h592q14 0 24.5 -10.5t10.5 -24.5v-729q0 -16 -10.5 -25.5 t-24.5 -9.5h-282q-20 0 -41 8l-17 8q-8 4 -16 11q-12 8 -27 16q-12 8 -29.5 8t-27.5 -10l-41 -39q-10 -10 -27.5 -17.5t-34.5 -7.5h-505h-35q-16 0 -33.5 7.5t-28.5 17.5l-225 215q-10 10 -18.5 26.5t-8.5 32.5z" />
<glyph unicode="h" d="M76 33v1272q0 29 10 41t25 12h374q16 0 26.5 -10.5t10.5 -24.5v-438q0 -14 10.5 -24.5t24.5 -10.5h444q14 0 24.5 10t10.5 25v438q0 14 10.5 24.5t26.5 10.5h375q14 0 24.5 -10.5t10.5 -24.5v-1290q0 -16 -10.5 -25.5t-24.5 -9.5h-375q-16 0 -26.5 9t-10.5 26v416 q0 14 -10 23t-25 9h-444q-14 0 -24.5 -9t-10.5 -23v-416q0 -16 -10 -25.5t-27 -9.5h-374q-14 0 -24.5 9.5t-10.5 25.5z" />
<glyph unicode="i" horiz-adv-x="575" d="M70 33v1290q0 14 10 24.5t24 10.5h361q16 0 26.5 -10.5t10.5 -24.5v-1290q0 -16 -10.5 -25.5t-26.5 -9.5h-361q-14 0 -24 9.5t-10 25.5z" />
<glyph unicode="j" horiz-adv-x="1423" d="M37 274v261q0 14 10 24t25 10h381q14 0 24 -10t10 -24v-150q0 -25 17.5 -41t42.5 -16h303q25 0 42 16t17 41v938q0 14 10.5 24.5t24.5 10.5h379q16 0 26.5 -10.5t10.5 -24.5v-1049q0 -16 -8.5 -32.5t-18.5 -26.5l-225 -215q-10 -10 -27.5 -17.5t-31.5 -7.5h-701 q-14 0 -31.5 7.5t-27.5 17.5l-228 215q-10 10 -17 26.5t-7 32.5z" />
<glyph unicode="k" horiz-adv-x="1681" d="M68 33v1290q0 14 10 24.5t26 10.5h365q14 0 24.5 -10.5t10.5 -24.5v-416q0 -14 8 -17t18 7l451 436q10 10 27.5 17.5t33.5 7.5h490q16 0 18 -7.5t-8 -17.5l-538 -508q-10 -10 -12.5 -24.5t7.5 -24.5l619 -751q6 -7 6 -14q0 -13 -20 -13h-463q-14 0 -30.5 8t-27.5 19 l-381 434q-10 10 -23 11t-24 -9l-112 -109q-10 -10 -17.5 -26.5t-7.5 -30.5v-262q0 -16 -10 -25.5t-25 -9.5h-379q-16 0 -26 9.5t-10 25.5z" />
<glyph unicode="l" horiz-adv-x="1314" d="M61 33v1290q0 14 9.5 24.5t25.5 10.5h361q16 0 25.5 -10.5t9.5 -24.5v-938q0 -16 10 -25.5t26 -9.5h727q16 0 25.5 -10t9.5 -25v-282q0 -35 -35 -35h-1159q-35 0 -35 35z" />
<glyph unicode="m" horiz-adv-x="1769" d="M78 33v1290q0 14 10 24.5t27 10.5h360q14 0 30.5 -8.5t24.5 -20.5l336 -440q8 -12 20.5 -12t20.5 12l336 440q8 12 24.5 20.5t30.5 8.5h361q16 0 26.5 -10.5t10.5 -24.5v-1290q0 -16 -10.5 -25.5t-26.5 -9.5h-361q-14 0 -24 9t-10 26v663q0 14 -6.5 16.5t-14.5 -10.5 l-334 -378q-10 -10 -22.5 -10.5t-22.5 10.5l-334 378q-8 12 -14 10.5t-6 -16.5v-663q0 -16 -10.5 -25.5t-24.5 -9.5h-360q-16 0 -26.5 9.5t-10.5 25.5zM752 453l6 -9zM1016 444l6 9z" />
<glyph unicode="n" d="M59 33v1290q0 14 10.5 24.5t26.5 10.5h361q14 0 30.5 -8.5t26.5 -20.5l528 -678q20 -25 21 8v664q0 14 10 24.5t27 10.5h360q14 0 24.5 -10.5t10.5 -24.5v-1290q0 -16 -10 -25.5t-25 -9.5h-360q-16 0 -31.5 8t-26.5 19l-528 677q-10 12 -16 10.5t-6 -16.5v-663 q0 -16 -10.5 -25.5t-24.5 -9.5h-361q-16 0 -26.5 9.5t-10.5 25.5z" />
<glyph unicode="o" horiz-adv-x="1595" d="M72 274v807q0 14 7 30.5t17 27.5l228 217q10 10 27.5 17t31.5 7h838q14 0 31.5 -7t27.5 -17l217 -217q10 -10 17.5 -26.5t7.5 -31.5v-807q0 -35 -25 -59l-225 -215q-10 -10 -27.5 -17.5t-34.5 -7.5h-827q-14 0 -31.5 7.5t-27.5 17.5l-228 215q-10 10 -17 26.5t-7 32.5z M528 385q0 -25 16.5 -41t41.5 -16h422q25 0 42 16t17 41v586q0 23 -17.5 40t-41.5 17h-422q-25 0 -41.5 -17.5t-16.5 -39.5v-586z" />
<glyph unicode="p" horiz-adv-x="1466" d="M78 33v362v928v6q6 29 35 29h360h627q14 0 31.5 -7.5t27.5 -17.5l227 -217q10 -10 17.5 -26.5t7.5 -30.5v-400q0 -16 -7 -32.5t-18 -26.5l-227 -215q-10 -10 -27.5 -17.5t-31.5 -7.5h-592v-327q0 -35 -35 -35h-360q-35 0 -35 35zM508 748q0 -16 10 -25.5t27 -9.5h352 q25 0 42 16t17 41v178q0 23 -17 40.5t-42 17.5h-352q-16 0 -26.5 -10.5t-10.5 -24.5v-113v-110z" />
<glyph unicode="q" horiz-adv-x="1595" d="M74 274v807q0 14 7 30.5t17 27.5l228 217q10 10 27.5 17t31.5 7h838q14 0 31.5 -7t27.5 -17l217 -217q10 -10 17.5 -26.5t7.5 -31.5v-807q0 -35 -25 -59l-225 -215q-10 -10 -27.5 -17.5t-34.5 -7.5h-165q-16 0 -25.5 -10t-9.5 -24v-144q0 -14 -10.5 -23.5t-26.5 -9.5 h-361q-14 0 -24 9.5t-10 23.5v144q0 14 -10.5 24t-24.5 10h-160q-14 0 -31.5 7.5t-27.5 17.5l-228 215q-10 10 -17 26.5t-7 32.5zM528 385q0 -25 17.5 -41t42.5 -16h422q25 0 42 16t17 41v586q0 23 -17.5 40t-41.5 17h-422q-25 0 -42.5 -17.5t-17.5 -39.5v-586z" />
<glyph unicode="r" horiz-adv-x="1484" d="M51 33v33l2 1257v2q0 14 10.5 23.5t24.5 9.5h985q16 0 33.5 -7.5t28.5 -17.5l225 -217q10 -10 18 -26.5t8 -30.5v-354q0 -14 -8 -32t-18 -28l-154 -147q-10 -10 -12 -25.5t6 -28.5q2 -4 15 -24l33 -50l43 -67l48 -76l127 -200q4 -9 5 -15q0 -14 -23 -14h-387 q-14 0 -30.5 8t-24.5 21l-244 350q-8 12 -23.5 20.5t-31.5 8.5h-189q-14 0 -24.5 -9.5t-10.5 -23.5v-340q0 -16 -10 -25.5t-24 -9.5h-361q-16 0 -26.5 9.5t-10.5 25.5zM483 793q0 -14 10.5 -24.5t24.5 -10.5h377q16 0 25.5 10t9.5 25v178q0 14 -9.5 24.5t-25.5 10.5h-377 q-14 0 -24.5 -10.5t-10.5 -24.5v-178z" />
<glyph unicode="s" horiz-adv-x="1544" d="M74 305v88q0 14 10 24.5t25 10.5h385q14 0 24 -10t10 -25v-22q0 -23 17.5 -40.5t42.5 -17.5h375q25 0 42 17.5t17 40.5v88q0 23 -17.5 40t-41.5 17h-598q-14 0 -32 6t-28 17l-207 196l-12 19q-12 20 -12 41v286q0 14 7 30.5t17 27.5l228 217q10 10 27.5 17t31.5 7h791 q14 0 31.5 -7t27.5 -17l217 -217q10 -10 17.5 -42t7.5 -46v-76q0 -14 -10.5 -24.5t-24.5 -10.5h-385q-14 0 -24.5 10.5t-10.5 24.5v10q0 23 -17.5 39t-41.5 16h-375q-25 0 -42.5 -16t-17.5 -39v-65q0 -25 17.5 -41.5t42.5 -16.5h577q14 0 33 -7t29 -17l225 -215 q25 -25 25 -60v-289q0 -35 -25 -59l-225 -215q-10 -10 -27.5 -17.5t-34.5 -7.5h-780q-39 0 -59 25l-228 215q-16 16 -20 38.5t-4 51.5z" />
<glyph unicode="t" horiz-adv-x="1509" d="M53 1038v285q0 14 9.5 24.5t25.5 10.5h1344q14 0 24 -10.5t10 -24.5v-285q0 -14 -10 -23t-24 -9h-422q-14 0 -24.5 -10.5t-10.5 -24.5v-938q0 -16 -10.5 -25.5t-24.5 -9.5h-360q-16 0 -26.5 9t-10.5 26v938q0 14 -9.5 24.5t-25.5 10.5h-420q-35 -1 -35 32z" />
<glyph unicode="u" horiz-adv-x="1509" d="M63 274v1049q0 14 10.5 24.5t26.5 10.5h379q16 0 25.5 -10.5t9.5 -24.5v-938q0 -25 17.5 -41t41.5 -16h357q25 0 42 16t17 41v938q0 14 9.5 24.5t25.5 10.5h379q16 0 26.5 -10.5t10.5 -24.5v-1049q0 -16 -8.5 -32.5t-18.5 -26.5l-225 -215q-10 -10 -27.5 -17.5 t-34.5 -7.5h-749q-16 0 -33.5 7.5t-28.5 17.5l-225 215q-10 10 -18.5 26.5t-8.5 32.5z" />
<glyph unicode="v" horiz-adv-x="1501" d="M-68 1325q-2 8 -2 14q0 19 25 19h407q35 0 50 -33l303 -858q4 -12 12 -12t12 12l303 858q14 33 50 33h407q14 0 21 -9q3 -5 3 -11t-3 -13l-539 -1296q-6 -12 -20.5 -21.5t-30.5 -9.5h-408q-14 0 -28.5 9t-20.5 22z" />
<glyph unicode="w" horiz-adv-x="2048" d="M66 1323l-2 8q0 9 7 17q9 10 23 10h361q16 0 27.5 -10.5t15.5 -24.5l149 -786q4 -33 15 0l190 731q4 14 16.5 23t26.5 9h283q14 0 26.5 -9t16.5 -23l192 -731q6 -33 14 0l150 786q2 14 13.5 24.5t27.5 10.5h360q16 0 25 -10q5 -7 5 -16q0 -4 -1 -9l-272 -1292 q-8 -33 -43 -33h-443q-16 0 -28.5 9t-16.5 24l-157 508q-10 31 -21 0l-156 -508q-4 -14 -17 -23.5t-30 -9.5h-442q-35 0 -43 33z" />
<glyph unicode="x" horiz-adv-x="1875" d="M54 10q0 7 7 15l531 641q10 10 9 25.5t-11 25.5l-502 614q-10 10 -6 18.5t18 8.5h490q16 0 32.5 -8.5t26.5 -18.5l269 -330q10 -10 23 -9t24 12l254 327q10 10 26.5 18.5t30.5 8.5h489q16 0 19.5 -8.5t-6.5 -18.5l-486 -610q-10 -10 -10 -25.5t10 -25.5l535 -645 q7 -7 7 -14q0 -3 -1 -5q-4 -8 -21 -8h-493q-14 0 -30.5 8t-26.5 19l-297 364q-23 25 -47 0l-291 -364q-10 -10 -27.5 -18.5t-32.5 -8.5h-493q-20 0 -20 12z" />
<glyph unicode="y" horiz-adv-x="1781" d="M62 1349q5 9 20 9h455q16 0 31.5 -9.5t23.5 -21.5l287 -506q18 -29 36 0l289 506q8 12 22.5 21.5t30.5 9.5h455q16 0 21 -9q1 -3 1 -7q0 -6 -5 -13l-574 -921q-8 -10 -13 -29t-5 -33v-313q0 -16 -10.5 -25.5t-24.5 -9.5h-408q-16 0 -26.5 9t-10.5 26v313q0 14 -5 32.5 t-13 29.5l-573 921q-5 6 -6 12q0 4 2 8z" />
<glyph unicode="z" horiz-adv-x="1572" d="M78 33v198q0 14 7 31t17 27l711 692q10 10 7 17.5t-17 7.5h-668q-14 0 -24.5 9t-10.5 23v285q0 14 10.5 24.5t24.5 10.5h1303q16 0 25.5 -10.5t9.5 -24.5v-207q0 -14 -7.5 -30.5t-17.5 -26.5l-711 -684q-25 -25 11 -25h720q14 0 24.5 -10t10.5 -25v-282q0 -16 -10 -25.5 t-25 -9.5h-1353q-16 0 -26.5 9.5t-10.5 25.5z" />
<glyph unicode="{" horiz-adv-x="927" d="M59 657q-20 25 0 50l119 110q10 10 17.5 27.5t7.5 32.5v340q0 35 24 59l226 215q10 10 27.5 17.5t33.5 7.5h322q14 0 24 -9.5t10 -23.5v-262q0 -14 -10 -24.5t-24 -10.5h-144q-25 0 -41 -16.5t-16 -39.5v-253q0 -14 -8.5 -32t-18.5 -28l-116 -110q-25 -25 0 -50l116 -112 q10 -10 18.5 -26.5t8.5 -31.5v-262q0 -23 16.5 -39t40.5 -16h144q14 0 24 -10t10 -25v-262q0 -14 -10 -23.5t-24 -9.5h-322q-16 0 -33.5 6.5t-27.5 16.5l-226 217q-10 10 -17 26.5t-7 30.5v350q0 14 -7.5 31t-17.5 27z" />
<glyph unicode="|" horiz-adv-x="538" d="M76 -127v1608q0 35 35 35h325q16 0 26.5 -9.5t10.5 -25.5v-1608q0 -14 -10 -23.5t-27 -9.5h-325q-35 0 -35 33z" />
<glyph unicode="}" horiz-adv-x="927" d="M66 -127v262q0 14 10 24.5t26 10.5h142q25 0 42 16.5t17 38.5v262q0 14 7 31t18 27l116 112q25 25 0 50l-116 110q-10 10 -17.5 27.5t-7.5 32.5v253q0 23 -17.5 39.5t-41.5 16.5h-142q-16 0 -26 10t-10 25v262q0 14 10 23.5t26 9.5h320q16 0 33.5 -7.5t27.5 -17.5 l226 -215q10 -10 18 -26.5t8 -32.5v-340q0 -14 7.5 -32t17.5 -28l117 -110q25 -25 0 -50l-117 -112q-10 -10 -17.5 -26.5t-7.5 -31.5v-350q0 -14 -8 -30.5t-18 -26.5l-226 -217q-10 -10 -27.5 -16.5t-33.5 -6.5h-320q-16 0 -26 9.5t-10 23.5z" />
<glyph unicode="~" horiz-adv-x="1318" d="M166 571v150q0 14 9 28.5t22 22.5l272 164q12 8 29.5 8t31.5 -8l273 -164q14 -4 33.5 -4t33.5 4l267 74q14 4 24 -3t10 -22v-149q0 -14 -9 -28.5t-21 -22.5l-275 -164q-12 -8 -29.5 -8t-29.5 8l-275 164q-14 4 -33.5 4t-33.5 -4l-264 -74q-35 -7 -35 24z" />
<glyph unicode="&#xa1;" horiz-adv-x="538" d="M80 33v798q0 16 10 25.5t25 9.5h325q16 0 26.5 -9t10.5 -26v-798q0 -16 -10 -25.5t-27 -9.5h-325q-14 0 -24.5 9.5t-10.5 25.5zM80 1016v307q0 14 10 23.5t25 9.5h325q16 0 26.5 -9.5t10.5 -23.5v-307q0 -14 -10 -24.5t-27 -10.5h-325q-14 0 -24.5 10.5t-10.5 24.5z" />
<glyph unicode="&#xa5;" horiz-adv-x="1789" d="M62.5 1348.5q5.5 9.5 19.5 9.5h391q16 0 30.5 -9.5t22.5 -21.5l353 -610q18 -29 36 0l355 610q8 12 23.5 21.5t29.5 9.5h389q16 0 21.5 -9.5t-2.5 -19.5l-281 -448q-8 -12 -3 -20.5t21 -8.5h121q14 0 24.5 -10.5t10.5 -24.5v-192q0 -14 -10 -24.5t-25 -10.5h-284 q-35 0 -54 -29l-37 -57q-8 -12 -2.5 -21.5t21.5 -9.5h356q14 0 24.5 -9t10.5 -24v-194q0 -14 -10 -23.5t-25 -9.5h-438q-14 0 -24.5 -10t-10.5 -25v-143q0 -16 -10 -25.5t-25 -9.5h-366q-16 0 -26.5 9t-10.5 26v143q0 14 -10.5 24.5t-24.5 10.5h-436q-16 0 -26.5 9t-10.5 24 v194q0 14 10 23.5t27 9.5h356q14 0 19.5 9.5t-2.5 21.5l-35 57q-8 12 -23.5 20.5t-32.5 8.5h-282q-16 0 -26.5 10t-10.5 25v192q0 14 10 24.5t27 10.5h121q14 0 19 8t-3 21l-278 448q-9 10 -3.5 19.5z" />
<glyph unicode="&#xa8;" horiz-adv-x="1056" d="M80 1518v307q0 33 35 33h325q16 0 26.5 -9.5t10.5 -23.5v-307q0 -14 -10 -23.5t-27 -9.5h-325q-35 0 -35 33zM608 1518v307q0 14 10.5 23.5t26.5 9.5h326q35 0 35 -33v-307q0 -33 -35 -33h-326q-16 0 -26.5 9.5t-10.5 23.5z" />
<glyph unicode="&#xa9;" horiz-adv-x="1546" d="M70 674q0 145 55 274t150.5 224.5t222.5 150.5t270 55q145 0 274 -55t224.5 -150.5t151 -224.5t55.5 -274q0 -143 -55.5 -270.5t-151 -222.5t-224.5 -150.5t-274 -55.5q-143 0 -270 55.5t-222.5 150.5t-150.5 222.5t-55 270.5zM195 674q0 -119 45 -223.5t122.5 -182.5 t182 -123t223.5 -45q121 0 225.5 45t181 123t120.5 182.5t44 223.5t-44 223t-120.5 182t-181 123t-225.5 45q-119 0 -223.5 -45t-182 -123t-122.5 -182t-45 -223zM473 492v339q0 14 7 30t18 26l75 76q10 10 25.5 18t30.5 8h297q14 0 29.5 -8t25.5 -18l76 -68 q10 -16 18 -32.5t8 -31.5v-18q0 -16 -12 -27.5t-27 -11.5h-137q-10 0 -21.5 7t-11.5 18q0 27 -30 26h-133q-14 0 -25.5 -11t-11.5 -28v-258q0 -14 11 -22t26 -8h133q14 0 22 7t8 17t11.5 18.5t21.5 8.5h137q14 0 26.5 -9.5t12.5 -23.5v-24q0 -14 -8 -34t-18 -30l-76 -76 q-10 -10 -28.5 -17t-32.5 -7h-291q-14 0 -29.5 7t-26.5 17l-75 76q-10 10 -17.5 30t-7.5 34z" />
<glyph unicode="&#xaa;" horiz-adv-x="1572" d="M72 33v1048q0 14 7 30.5t17 27.5l226 217q10 10 27.5 17t33.5 7h827q14 0 32 -7t28 -17l217 -217q10 -10 17 -26.5t7 -31.5v-1048q0 -16 -10 -25.5t-24 -9.5h-371q-14 0 -24.5 9t-10.5 26v311q0 14 -10 24.5t-27 10.5h-481q-16 0 -26.5 -10.5t-10.5 -24.5v-311 q0 -16 -10 -25.5t-25 -9.5h-375q-34 0 -34 35zM516 780q0 -14 10.5 -24.5t26.5 -10.5h481q16 0 26.5 10.5t10.5 24.5v164q0 23 -17.5 39t-41.5 16h-437q-25 0 -42 -16t-17 -39v-164z" />
<glyph unicode="&#xab;" horiz-adv-x="948" d="M51 701.5q0 17.5 8 27.5l172 262q8 12 23.5 20.5t30.5 8.5h155q35 0 27 -33l-78 -254q-4 -12 -4 -31.5t4 -33.5l78 -254q4 -12 -3 -22.5t-24 -10.5h-155q-14 0 -29.5 9t-24.5 20l-172 262q-8 12 -8 29.5zM473 701.5q0 17.5 8 27.5l170 262q20 29 56 29h155 q14 0 21.5 -9.5t3.5 -23.5l-76 -254q-4 -12 -4 -31.5t4 -33.5l76 -254q4 -12 -3 -22.5t-22 -10.5h-155q-16 0 -30.5 9t-25.5 20l-170 262q-8 12 -8 29.5z" />
<glyph unicode="&#xad;" horiz-adv-x="948" d="M74 580v284q0 14 10 24.5t25 10.5h749q14 0 24.5 -10t10.5 -25v-284q0 -14 -10.5 -23.5t-24.5 -9.5h-749q-14 0 -24.5 9.5t-10.5 23.5z" />
<glyph unicode="&#xae;" horiz-adv-x="1507" d="M47 676q0 147 55.5 275t150.5 224.5t222 151.5t273 55q147 0 275 -55t224 -151.5t151.5 -224.5t55.5 -275q0 -145 -55.5 -272.5t-151.5 -222.5t-224 -150.5t-275 -55.5q-145 0 -272.5 55.5t-222.5 150.5t-150.5 222.5t-55.5 272.5zM174 676q0 -119 45 -223.5t123 -182 t182.5 -123t223.5 -45.5q121 0 225 45.5t182 123t122 182t44 223.5t-44 223.5t-122 182t-182.5 122.5t-224.5 45q-119 0 -223.5 -45t-182.5 -122.5t-123 -182t-45 -223.5zM451 373v585q0 16 11 24.5t27 8.5h416q14 0 30.5 -7t27.5 -17l81 -76q10 -10 14.5 -26.5t4.5 -30.5 v-140q0 -14 -4 -30.5t-15 -26.5l-51 -43q-10 -10 -10 -26.5t4 -30.5l107 -170q4 -10 0 -17.5t-19 -7.5h-139q-14 0 -29.5 7t-25.5 18l-90 139q-10 14 -25.5 22.5t-30.5 8.5h-51q-14 0 -22.5 -11.5t-8.5 -25.5v-127q0 -14 -12 -22.5t-27 -8.5h-125q-16 0 -27 8.5t-11 22.5z M653 739q0 -16 8.5 -27.5t22.5 -11.5h139q14 0 22.5 11.5t8.5 27.5v49q0 33 -31 33h-139q-31 0 -31 -33v-49z" />
<glyph unicode="&#xb0;" horiz-adv-x="796" d="M66 1266q0 68 26.5 128t73.5 105t109.5 70.5t134.5 25.5t134 -25.5t109 -70.5t75 -105.5t28 -127.5q0 -68 -28 -128.5t-75 -105.5t-109.5 -71.5t-133.5 -26.5q-72 0 -134.5 26.5t-109.5 71.5t-73.5 105.5t-26.5 128.5zM291 1266q0 -47 34.5 -81t84.5 -34q51 0 85.5 34 t34.5 81t-34.5 80.5t-85.5 33.5q-49 0 -84 -33.5t-35 -80.5z" />
<glyph unicode="&#xb2;" horiz-adv-x="1509" d="M63 33v512q0 14 8.5 30.5t18.5 26.5l225 215q10 10 27.5 17.5t32.5 7.5h555q25 0 41 17.5t16 39.5l2 84q0 23 -17.5 39t-41.5 16h-350q-25 0 -42.5 -16t-17.5 -39v-10q0 -14 -10 -24.5t-25 -10.5h-385q-16 0 -25 10t-9 25v137q-2 2 0 8q2 4 4 9.5t8 9.5l229 217 q10 10 27.5 17t32.5 7h766q16 0 33.5 -7t27.5 -17l225 -217q10 -10 17.5 -26.5t7.5 -31.5v-305q0 -10 -4 -19.5l-8 -19.5q-6 -14 -15 -18l-205 -197q-10 -10 -27.5 -17t-33.5 -7h-582q-25 0 -42 -13.5t-17 -36.5v-55q0 -23 17.5 -40t41.5 -17h838q16 0 26.5 -9.5t10.5 -23.5 v-268q0 -16 -10.5 -25.5t-26.5 -9.5h-1307q-16 0 -26.5 9.5t-10.5 25.5z" />
<glyph unicode="&#xb3;" horiz-adv-x="1509" d="M53 274v134q0 14 10.5 24t24.5 10h385q14 0 24.5 -10t10.5 -24v-52q0 -23 17.5 -39t41.5 -16h394q25 0 42 16.5t17 38.5v129q0 23 -17.5 40.5t-41.5 17.5h-472q-16 0 -26 9t-10 23v240q0 14 10 23.5t26 9.5h453q25 0 41 17.5t16 39.5v115q0 25 -16 41t-41 16h-350 q-25 0 -41 -16.5t-19 -40.5v-45q0 -14 -9 -24.5t-25 -10.5h-383q-16 0 -26.5 10.5t-10.5 24.5v121q0 14 3 23t13 20l225 217q10 10 28 17t34 7h555h180q14 0 31.5 -7t28.5 -17l227 -217q10 -10 17 -26.5t7 -31.5v-241q0 -14 -7 -30.5t-17 -27.5l-37 -34q-10 -10 -10 -24.5 t10 -25.5l78 -75q10 -10 18 -26.5t8 -31.5v-299q0 -14 -8 -30.5t-18 -26.5l-221 -209q-10 -10 -27.5 -17.5t-32.5 -7.5h-798q-16 0 -34 7.5t-28 17.5l-225 215q-10 10 -17.5 27.5t-7.5 31.5z" />
<glyph unicode="&#xb4;" horiz-adv-x="581" d="M49 1507v140q0 14 9.5 28.5t21.5 22.5l414 227q12 8 21 3t9 -19v-267q0 -14 -10 -26t-25 -17l-405 -114q-14 -4 -24.5 2t-10.5 20z" />
<glyph unicode="&#xb8;" horiz-adv-x="1705" />
<glyph unicode="&#xb9;" horiz-adv-x="561" d="M68 33v1071q0 14 7 31.5t17 27.5l178 170q10 10 27.5 17.5t34.5 7.5h131q16 0 25.5 -10.5t9.5 -24.5v-1290q0 -35 -35 -35h-361q-14 0 -24 9.5t-10 25.5z" />
<glyph unicode="&#xba;" horiz-adv-x="1595" d="M72 274v807q0 14 7 30.5t17 27.5l228 217q10 10 27.5 17t31.5 7h838q14 0 31.5 -7t27.5 -17l217 -217q10 -10 17.5 -26.5t7.5 -31.5v-807q0 -35 -25 -59l-225 -215q-10 -10 -27.5 -17.5t-34.5 -7.5h-827q-14 0 -31.5 7.5t-27.5 17.5l-228 215q-10 10 -17 26.5t-7 32.5z M528 385q0 -25 16.5 -41t41.5 -16h422q25 0 42 16t17 41v586q0 23 -17.5 40t-41.5 17h-422q-25 0 -41.5 -17.5t-16.5 -39.5v-586z" />
<glyph unicode="&#xbb;" horiz-adv-x="927" d="M51 414l76 254q4 14 4 33.5t-4 31.5l-76 254q-4 14 3 23.5t22 9.5h155q14 0 29.5 -8t24.5 -21l172 -262q8 -10 8 -27.5t-8 -29.5l-172 -262q-8 -10 -23.5 -19.5t-30.5 -9.5h-155q-14 0 -21.5 10.5t-3.5 22.5zM471 414l76 254q4 14 4 33.5t-4 31.5l-76 254q-4 14 3 23.5 t24 9.5h153q16 0 31.5 -8t24.5 -21l172 -262q8 -10 8 -27.5t-8 -29.5l-172 -262q-8 -10 -23.5 -19.5t-32.5 -9.5h-153q-16 0 -23.5 10.5t-3.5 22.5z" />
<glyph unicode="&#xbc;" horiz-adv-x="2965" d="M1634 524v707q0 14 10.5 24.5t24.5 10.5h381q16 0 26.5 -10.5t10.5 -24.5v-332q0 -14 10 -24.5t27 -10.5h282q14 0 24.5 10.5t10.5 24.5v447q0 14 10.5 24t26.5 10h381q16 0 26.5 -10t10.5 -24v-1313q0 -14 -10.5 -24.5t-26.5 -10.5h-381q-16 0 -26.5 10t-10.5 25v424 q0 14 -10 24.5t-25 10.5h-282h-455q-14 0 -24.5 9t-10.5 23zM1077 0q-4 -10 -15.5 -18.5t-25.5 -8.5h-301q-12 0 -19.5 8.5t-2.5 18.5l415 1354q4 10 15.5 18t23.5 8h303q12 0 18.5 -8t2.5 -18zM68 33v1071q0 14 7 31.5t17 27.5l178 170q10 10 27.5 17.5t34.5 7.5h131 q16 0 25.5 -10.5t9.5 -24.5v-1290q0 -35 -35 -35h-361q-14 0 -24 9.5t-10 25.5z" />
<glyph unicode="&#xbd;" horiz-adv-x="3094" d="M1648 33v512q0 14 8.5 30.5t18.5 26.5l225 215q10 10 27.5 17.5t32.5 7.5h555q25 0 41 17.5t16 39.5l2 84q0 23 -17.5 39t-41.5 16h-350q-25 0 -42.5 -16t-17.5 -39v-10q0 -14 -10 -24.5t-25 -10.5h-385q-16 0 -25 10t-9 25v137q-2 2 0 8q2 4 4 9.5t8 9.5l229 217 q10 10 27.5 17t32.5 7h766q16 0 33.5 -7t27.5 -17l225 -217q10 -10 17.5 -26.5t7.5 -31.5v-305q0 -10 -4 -19.5l-8 -19.5q-6 -14 -15 -18l-205 -197q-10 -10 -27.5 -17t-33.5 -7h-582q-25 0 -42 -13.5t-17 -36.5v-55q0 -23 17.5 -40t41.5 -17h838q16 0 26.5 -9.5t10.5 -23.5 v-268q0 -16 -10.5 -25.5t-26.5 -9.5h-1307q-16 0 -26.5 9.5t-10.5 25.5zM1077 0q-4 -10 -15.5 -18.5t-25.5 -8.5h-301q-12 0 -19.5 8.5t-2.5 18.5l415 1354q4 10 15.5 18t23.5 8h303q12 0 18.5 -8t2.5 -18zM68 33v1071q0 14 7 31.5t17 27.5l178 170q10 10 27.5 17.5 t34.5 7.5h131q16 0 25.5 -10.5t9.5 -24.5v-1290q0 -35 -35 -35h-361q-14 0 -24 9.5t-10 25.5z" />
<glyph unicode="&#xbe;" horiz-adv-x="3913" d="M2582 524v707q0 14 10.5 24.5t24.5 10.5h381q16 0 26.5 -10.5t10.5 -24.5v-332q0 -14 10 -24.5t27 -10.5h282q14 0 24.5 10.5t10.5 24.5v447q0 14 10.5 24t26.5 10h381q16 0 26.5 -10t10.5 -24v-1313q0 -14 -10.5 -24.5t-26.5 -10.5h-381q-16 0 -26.5 10t-10.5 25v424 q0 14 -10 24.5t-25 10.5h-282h-455q-14 0 -24.5 9t-10.5 23zM2025 0q-4 -10 -15.5 -18.5t-25.5 -8.5h-301q-12 0 -19.5 8.5t-2.5 18.5l415 1354q4 10 15.5 18t23.5 8h303q12 0 18.5 -8t2.5 -18zM53 274v134q0 14 10.5 24t24.5 10h385q14 0 24.5 -10t10.5 -24v-52 q0 -23 17.5 -39t41.5 -16h394q25 0 42 16.5t17 38.5v129q0 23 -17.5 40.5t-41.5 17.5h-472q-16 0 -26 9t-10 23v240q0 14 10 23.5t26 9.5h453q25 0 41 17.5t16 39.5v115q0 25 -16 41t-41 16h-350q-25 0 -41 -16.5t-19 -40.5v-45q0 -14 -9 -24.5t-25 -10.5h-383 q-16 0 -26.5 10.5t-10.5 24.5v121q0 14 3 23t13 20l225 217q10 10 28 17t34 7h555h180q14 0 31.5 -7t28.5 -17l227 -217q10 -10 17 -26.5t7 -31.5v-241q0 -14 -7 -30.5t-17 -27.5l-37 -34q-10 -10 -10 -24.5t10 -25.5l78 -75q10 -10 18 -26.5t8 -31.5v-299q0 -14 -8 -30.5 t-18 -26.5l-221 -209q-10 -10 -27.5 -17.5t-32.5 -7.5h-798q-16 0 -34 7.5t-28 17.5l-225 215q-10 10 -17.5 27.5t-7.5 31.5z" />
<glyph unicode="&#xbf;" horiz-adv-x="1443" d="M45 272v197q0 20 12 39q6 12 15 18l204 197q10 10 28 17.5t32 7.5h207q25 0 42 17t17 40v26q0 14 9.5 24.5t25.5 10.5h350q14 0 24.5 -10t10.5 -25v-86q0 -35 -25 -59l-225 -215q-10 -10 -27.5 -17.5t-33.5 -7.5h-152q-25 0 -42 -16t-17 -41v-43q0 -23 17.5 -39t41.5 -16 h328q25 0 42 16.5t17 38.5v33q0 14 10.5 24.5t24.5 10.5h385q14 0 24.5 -10.5t10.5 -24.5v-76q0 -14 -7.5 -46t-17.5 -42l-217 -217q-10 -10 -27.5 -17.5t-31.5 -7.5h-744q-14 0 -31.5 7.5t-27.5 17.5l-225 217q-10 10 -18.5 26.5t-8.5 30.5zM610 1016v307q0 14 10.5 23.5 t26.5 9.5h326q14 0 24.5 -9.5t10.5 -23.5v-307q0 -14 -10.5 -24.5t-24.5 -10.5h-326q-16 0 -26.5 10.5t-10.5 24.5z" />
<glyph unicode="&#xc0;" d="M51 33q0 -16 10.5 -25.5t24.5 -9.5h375q16 0 26.5 9t10.5 26v311q0 14 9 24.5t25 10.5h484q14 0 24.5 -10.5t10.5 -24.5v-311q0 -16 10 -25.5t24 -9.5h371q35 0 35 35v1048q0 14 -7 30.5t-18 27.5l-215 217q-10 10 -28.5 17t-32.5 7h-828q-14 0 -32.5 -7t-28.5 -17 l-225 -217q-10 -10 -17.5 -26.5t-7.5 -31.5v-1048zM498 780v164q0 23 16 39t41 16h436q25 0 42.5 -16t17.5 -39v-164q0 -14 -10.5 -24.5t-24.5 -10.5h-484q-16 0 -25 10.5t-9 24.5zM535 1642v267q0 14 9 19t21 -3l412 -227q12 -8 21.5 -22.5t9.5 -28.5v-140q0 -33 -33 -22 l-406 114q-14 4 -24 16.5t-10 26.5z" />
<glyph unicode="&#xc1;" d="M57 33v1048q0 14 7.5 30.5t17.5 27.5l225 217q10 10 28.5 17t33.5 7h827q16 0 33.5 -7t27.5 -17l216 -217q10 -10 18 -26.5t8 -31.5l-2 -1048q0 -35 -35 -35h-370q-14 0 -24.5 9t-10.5 26v311q0 14 -10.5 24.5t-24.5 10.5h-483q-16 0 -25.5 -10.5t-9.5 -24.5v-311 q0 -16 -10.5 -25.5t-26.5 -9.5h-375q-14 0 -24.5 9.5t-10.5 25.5zM504 780q0 -14 9 -24.5t26 -10.5h483q14 0 24.5 10.5t10.5 24.5v164q0 23 -17.5 39t-42.5 16h-436q-23 0 -40 -16t-17 -39v-164zM549 1507v140q0 14 8 28.5t23 22.5l411 227q12 8 21.5 3t9.5 -19v-267 q0 -14 -10.5 -26t-24.5 -17l-405 -114q-33 -11 -33 22z" />
<glyph unicode="&#xc2;" horiz-adv-x="1529" d="M49 33v1048q0 14 7 30.5t18 27.5l227 217q10 10 27.5 17t31.5 7h828q16 0 33.5 -7t27.5 -17l215 -217q10 -10 18.5 -26.5t8.5 -31.5v-1048q0 -16 -10.5 -25.5t-26.5 -9.5h-369q-16 0 -26 9t-10 26v311q0 14 -9.5 24.5t-25.5 10.5h-484q-14 0 -24 -10.5t-10 -24.5v-311 q0 -16 -10.5 -25.5t-26.5 -9.5h-375q-14 0 -24.5 9.5t-10.5 25.5zM436 1509v148q0 14 9.5 29.5t21.5 21.5l272 164q12 8 30.5 8t31.5 -8l272 -164q12 -6 21.5 -21.5t9.5 -29.5v-148q0 -14 -10.5 -21t-24.5 -3l-264 71q-16 4 -35.5 4.5t-34.5 -4.5l-264 -71q-16 -4 -25.5 3 t-9.5 21zM496 780q0 -14 10 -24.5t24 -10.5h484q16 0 25.5 10.5t9.5 24.5v164q0 23 -17.5 39t-42.5 16h-434q-25 0 -42 -16t-17 -39v-164z" />
<glyph unicode="&#xc3;" d="M61 33q0 -35 35 -35h375q14 0 24.5 9t10.5 26v311q0 14 10 24.5t27 10.5h483q14 0 24.5 -10.5t10.5 -24.5v-311q0 -16 10 -25.5t25 -9.5h370q14 0 24.5 9t10.5 26v1048q0 14 -7 30.5t-17 27.5l-217 217q-10 10 -28 17t-32 7h-827q-16 0 -33.5 -7t-28.5 -17l-225 -217 q-10 -10 -17.5 -26.5t-7.5 -31.5v-1048zM279 1550v150q0 14 9 28.5t21 22.5l273 164q12 8 30.5 8t30.5 -8l272 -164q14 -4 34 -4t36 4l264 74q14 4 24.5 -3t10.5 -22v-149q0 -14 -9 -28.5t-22 -23.5l-272 -163q-14 -8 -31.5 -8.5t-29.5 8.5l-273 163q-16 4 -35.5 4.5 t-33.5 -4.5l-265 -73q-14 -4 -24 3t-10 21zM506 780v164q0 23 17.5 39t41.5 16h436q25 0 42.5 -16t17.5 -39v-164q0 -14 -10.5 -24.5t-24.5 -10.5h-483q-16 0 -26.5 10.5t-10.5 24.5z" />
<glyph unicode="&#xc4;" d="M63 33v1048q0 14 7.5 30.5t17.5 27.5l227 217q10 10 27.5 17t32.5 7h827q16 0 33.5 -7t28.5 -17l215 -217q10 -10 18 -26.5t8 -31.5v-1048q0 -16 -10 -25.5t-27 -9.5h-368q-16 0 -26.5 9t-10.5 26v311q0 14 -9.5 24.5t-25.5 10.5h-483q-14 0 -24.5 -10.5t-10.5 -24.5 v-311q0 -16 -10.5 -25.5t-26.5 -9.5h-375q-14 0 -24.5 9.5t-10.5 25.5zM322 1518v307q0 33 34 33h326q16 0 26.5 -9.5t10.5 -23.5v-307q0 -14 -10.5 -23.5t-26.5 -9.5h-326q-34 0 -34 33zM510 780q0 -14 10 -24.5t25 -10.5h483q16 0 25.5 10.5t9.5 24.5v164q0 23 -17.5 39 t-39.5 16h-2h-435q-25 0 -42 -16t-17 -39v-164zM850 1518v307q0 14 10 23.5t27 9.5h325q35 0 35 -33v-307q0 -33 -35 -33h-325q-16 0 -26.5 9.5t-10.5 23.5z" />
<glyph unicode="&#xc5;" d="M63 33v1048q0 14 7.5 30.5t17.5 27.5l225 217q10 10 27.5 17t34.5 7h63v4q0 68 27 128.5t74 105.5t110.5 70.5t134.5 25.5q72 0 134.5 -25.5t109.5 -70.5t73.5 -105.5t26.5 -128.5v-4h74q14 0 31.5 -7t28.5 -17l217 -217q10 -10 17 -26.5t7 -31.5v-1048q0 -35 -35 -35 h-370q-14 0 -24.5 9t-10.5 26v301q0 14 -10.5 23.5t-24.5 9.5h-483q-16 0 -26.5 -9.5t-10.5 -23.5v-301q0 -35 -35 -35h-375q-14 0 -24.5 9.5t-10.5 25.5zM508 768q0 -14 10 -23.5t27 -9.5h483q14 0 24.5 9.5t10.5 23.5v176q0 23 -17.5 39t-41.5 16h-437q-25 0 -42 -16 t-17 -39v-176zM664 1380q2 -47 36.5 -78.5t83.5 -31.5q47 0 82 31.5t37 78.5v4q0 47 -34.5 81t-84.5 34q-51 0 -85.5 -33.5t-34.5 -81.5v-4z" />
<glyph unicode="&#xc6;" horiz-adv-x="2263" d="M68 33v1026q0 14 7 30.5t17 26.5l227 217q10 10 28 17.5t32 7.5h1798q14 0 24.5 -10.5t10.5 -24.5v-285q0 -14 -10.5 -23t-24.5 -9h-713q-16 0 -26.5 -10.5t-10.5 -24.5v-97q0 -14 10.5 -23t26.5 -9h426q14 0 24.5 -10.5t10.5 -24.5v-258q0 -16 -10 -25.5t-25 -9.5h-426 q-16 0 -26.5 -10t-10.5 -25v-94q0 -16 10.5 -25.5t26.5 -9.5h713q14 0 24.5 -10t10.5 -25v-282q0 -16 -10.5 -25.5t-24.5 -9.5h-1145q-10 0 -14 2q-14 6 -21 23v10v311q0 14 -10 24.5t-26 10.5h-412q-14 0 -24.5 -10.5t-10.5 -24.5v-311q0 -16 -10 -25.5t-27 -9.5h-375 q-14 0 -24 9.5t-10 25.5zM514 780q0 -14 10.5 -24.5t24.5 -10.5h412q16 0 26 10.5t10 24.5v142q0 23 -17 39t-42 16h-365q-25 0 -42 -16.5t-17 -38.5v-142z" />
<glyph unicode="&#xc7;" horiz-adv-x="1466" d="M88 276v807q0 16 7 31.5t16 26.5l217 221q18 18 57 18h711q14 0 30.5 -4t26.5 -14l207 -221q10 -10 18 -25.5t8 -32.5v-118q0 -33 -32 -33h-371q-33 0 -33 33v6q0 25 -16 41t-39 16h-315q-25 0 -40.5 -16.5t-15.5 -40.5v-588q0 -23 15.5 -39t40.5 -16h315q23 0 39 16 t16 39v29q0 12 8.5 21t24.5 9h371q14 0 23 -9t9 -21v-136q0 -12 -8 -31.5t-18 -29.5l-213 -213q-10 -10 -26.5 -18.5t-30.5 -8.5h-201q-31 0 -21 -30l43 -76q4 -14 8.5 -34.5t4.5 -35.5v-133q0 -14 -8.5 -24.5t-20.5 -10.5h-336q-14 0 -24.5 10.5t-10.5 24.5v133 q0 14 10.5 26.5t24.5 12.5h133q14 0 21.5 8.5t-2.5 22.5l-31 76q-4 14 -20.5 22t-28.5 8h-246q-16 0 -31.5 8.5t-25.5 18.5l-217 213q-8 10 -15.5 29.5t-7.5 31.5z" />
<glyph unicode="&#xc8;" horiz-adv-x="1380" d="M63 33q0 -16 10.5 -25.5t24.5 -9.5h1192q16 0 26.5 9t10.5 26v282q0 14 -10 24.5t-27 10.5h-760q-35 0 -34 35v94q0 14 9 24.5t25 10.5h402q16 0 26.5 9t10.5 26v258q0 14 -10.5 24.5t-26.5 10.5h-402q-35 0 -34 32v97q0 14 9 24.5t25 10.5h760q16 0 26.5 9t10.5 23v285 q0 14 -10 24.5t-27 10.5h-1192q-14 0 -24.5 -10.5t-10.5 -24.5v-1290zM459 1642v267q0 33 30 16l412 -227q12 -8 21.5 -22.5t9.5 -28.5v-140q0 -14 -10.5 -20t-24.5 -2l-405 114q-14 4 -23.5 16.5t-9.5 26.5z" />
<glyph unicode="&#xc9;" horiz-adv-x="1380" d="M61 33v1290q0 14 10.5 24.5t24.5 10.5h1192q16 0 25.5 -10.5t9.5 -24.5v-285q0 -33 -35 -32h-760q-16 0 -25 -10.5t-9 -24.5v-97q0 -33 34 -32h402q16 0 26.5 -10.5t10.5 -24.5v-258q0 -16 -10.5 -25.5t-26.5 -9.5h-402q-16 0 -25 -10t-9 -25v-94q0 -35 34 -35h760 q16 0 25.5 -10t9.5 -25v-282q0 -35 -35 -35h-1192q-14 0 -24.5 9.5t-10.5 25.5zM457 1507v140q0 14 8 28.5t22 22.5l412 227q12 8 21.5 3t9.5 -19v-267q0 -14 -10.5 -26t-24.5 -17l-406 -114q-32 -11 -32 22z" />
<glyph unicode="&#xca;" horiz-adv-x="1380" d="M59 33v1290q0 14 10.5 24.5t24.5 10.5h1192q16 0 25.5 -10.5t9.5 -24.5v-285q0 -33 -35 -32h-760q-16 0 -25 -10.5t-9 -24.5v-97q0 -33 34 -32h402q16 0 26.5 -10.5t10.5 -24.5v-258q0 -16 -10.5 -25.5t-26.5 -9.5h-402q-16 0 -25 -10t-9 -25v-94q0 -35 34 -35h760 q16 0 25.5 -10t9.5 -25v-282q0 -35 -35 -35h-1192q-14 0 -24.5 9.5t-10.5 25.5zM356 1509v148q0 14 9.5 29.5t21.5 21.5l272 164q14 8 32 8t30 -8l272 -164q12 -6 21.5 -21.5t9.5 -29.5v-148q0 -14 -9 -21t-26 -3l-264 71q-14 4 -33.5 4.5t-36.5 -4.5l-264 -71 q-14 -4 -24.5 3t-10.5 21z" />
<glyph unicode="&#xcb;" horiz-adv-x="1380" d="M66 33v1290q0 14 10 24.5t26 10.5h1192q14 0 24.5 -10.5t10.5 -24.5v-285q0 -14 -10 -23t-25 -9h-762q-14 0 -24 -10.5t-10 -24.5v-97q0 -14 10 -23t24 -9h404q14 0 24.5 -10.5t10.5 -24.5v-258q0 -16 -10.5 -25.5t-24.5 -9.5h-404q-14 0 -24 -10t-10 -25v-94 q0 -16 10 -25.5t24 -9.5h762q14 0 24.5 -10t10.5 -25v-282q0 -16 -10 -25.5t-25 -9.5h-1192q-16 0 -26 9.5t-10 25.5zM233 1518v307q0 14 10.5 23.5t26.5 9.5h326q14 0 24.5 -9.5t10.5 -23.5v-307q0 -14 -10.5 -23.5t-24.5 -9.5h-326q-16 0 -26.5 9.5t-10.5 23.5zM764 1518 v307q0 14 10 23.5t25 9.5h327q14 0 24.5 -9.5t10.5 -23.5v-307q0 -14 -10 -23.5t-25 -9.5h-327q-14 0 -24.5 9.5t-10.5 23.5z" />
<glyph unicode="&#xcc;" horiz-adv-x="604" d="M72 1642v267q0 14 9 19t21 -3l412 -227q14 -8 22.5 -22.5t8.5 -28.5v-140q0 -33 -33 -22l-406 114q-14 4 -24 16.5t-10 26.5zM111 33v1290q0 14 10 24.5t26 10.5h361q14 0 24.5 -10.5t10.5 -24.5v-1290q0 -16 -10.5 -25.5t-24.5 -9.5h-361q-16 0 -26 9.5t-10 25.5z" />
<glyph unicode="&#xcd;" horiz-adv-x="581" d="M61 33v1290q0 14 9.5 24.5t25.5 10.5h361q16 0 25.5 -10.5t9.5 -24.5v-1290q0 -35 -35 -35h-361q-35 0 -35 35zM61 1507v140q0 14 8.5 28.5t22.5 22.5l412 227q12 8 21.5 3t9.5 -19v-267q0 -14 -10.5 -26t-24.5 -17l-406 -114q-33 -11 -33 22z" />
<glyph unicode="&#xce;" horiz-adv-x="753" d="M47 1509v148q0 14 9.5 29.5t21.5 21.5l272 164q12 8 30.5 8t31.5 -8l272 -164q12 -6 21.5 -21.5t9.5 -29.5v-148q0 -14 -9.5 -21t-25.5 -3l-264 71q-14 4 -34 4.5t-36 -4.5l-264 -71q-14 -4 -24.5 3t-10.5 21zM166 33v1290q0 14 10 24.5t25 10.5h360q16 0 25.5 -10.5 t9.5 -24.5v-1290q0 -35 -35 -35h-360q-14 0 -24.5 9.5t-10.5 25.5z" />
<glyph unicode="&#xcf;" horiz-adv-x="561" d="M70 33v1290q0 14 10 24.5t24 10.5h361q16 0 26.5 -10.5t10.5 -24.5v-1290q0 -16 -10.5 -25.5t-26.5 -9.5h-361q-14 0 -24 9.5t-10 25.5zM-180 1518v307q0 33 35 33h325q16 0 26.5 -9.5t10.5 -23.5v-307q0 -14 -10 -23.5t-27 -9.5h-325q-35 0 -35 33zM348 1518v307 q0 14 10.5 23.5t26.5 9.5h326q35 0 35 -33v-307q0 -33 -35 -33h-326q-16 0 -26.5 9.5t-10.5 23.5z" />
<glyph unicode="&#xd0;" horiz-adv-x="1703" d="M57 539v284q0 14 10.5 23.5t26.5 9.5h119q16 0 25.5 10.5t9.5 24.5v432q0 14 10 24.5t27 10.5h1061q16 0 33.5 -7.5t27.5 -17.5l225 -217q10 -10 18.5 -26.5t8.5 -30.5v-762q0 -14 -8.5 -31.5t-18.5 -27.5l-225 -215q-10 -10 -27.5 -17.5t-33.5 -7.5h-1061q-16 0 -26.5 9 t-10.5 26v438q0 33 -35 33h-119q-16 0 -26.5 10.5t-10.5 24.5zM680 385q0 -16 10 -25.5t25 -9.5h428q25 0 42 16.5t17 41.5v540q0 23 -17.5 40.5t-41.5 17.5h-428q-14 0 -24.5 -10.5t-10.5 -24.5v-80q0 -14 10 -24.5t25 -10.5h151q16 0 26.5 -9t10.5 -24v-284 q0 -14 -10 -24.5t-27 -10.5h-151q-14 0 -24.5 -9.5t-10.5 -23.5v-86z" />
<glyph unicode="&#xd1;" horiz-adv-x="1529" d="M59 33q0 -16 10.5 -25.5t24.5 -9.5h361q16 0 26.5 9t10.5 26v663q0 33 20 6l528 -677q10 -10 26.5 -18.5t31.5 -8.5h360q35 0 35 35v1290q0 14 -9 24.5t-26 10.5h-360q-14 0 -24.5 -10.5t-10.5 -24.5v-664q0 -16 -6 -17t-17 9l-528 678q-23 29 -57 29h-361 q-14 0 -24.5 -10.5t-10.5 -24.5v-1290zM274 1550v150q0 33 29 51l275 164q12 8 29.5 8t29.5 -8l274 -164q14 -4 34 -4t34 4l266 74q14 4 24.5 -3t10.5 -22v-149q0 -14 -9 -28.5t-22 -23.5l-274 -163q-12 -8 -29.5 -8.5t-30.5 8.5l-274 163q-14 4 -33.5 4.5t-34.5 -4.5 l-266 -73q-33 -9 -33 24z" />
<glyph unicode="&#xd2;" horiz-adv-x="1572" d="M66 274q0 -35 24 -59l225 -215q10 -10 27.5 -17.5t34.5 -7.5h827q14 0 31.5 7.5t28.5 17.5l227 215q10 10 17.5 26.5t7.5 32.5v807q0 14 -7.5 30.5t-17.5 27.5l-217 217q-10 10 -27.5 17t-34.5 7h-835q-16 0 -33.5 -7t-28.5 -17l-225 -217q-10 -10 -17 -26.5t-7 -31.5 v-807zM520 385v586q0 23 17.5 40t42.5 17h421q25 0 42.5 -17.5t17.5 -39.5v-586q0 -25 -17.5 -41t-42.5 -16h-421q-25 0 -42.5 16t-17.5 41zM553 1642v267q0 14 9 19t22 -3l411 -227q14 -8 22.5 -22.5t8.5 -28.5v-140q0 -33 -33 -22l-405 114q-14 4 -24.5 16.5t-10.5 26.5z " />
<glyph unicode="&#xd3;" horiz-adv-x="1572" d="M57 274v807q0 14 8.5 30.5t18.5 27.5l225 217q10 10 27.5 17t34.5 7h835q16 0 33.5 -7t28.5 -17l215 -217q10 -10 18 -26.5t8 -31.5v-807q0 -16 -8 -32.5t-18 -26.5l-226 -215q-10 -10 -27.5 -17.5t-33.5 -7.5h-825q-16 0 -34 7.5t-28 17.5l-225 215q-10 10 -18.5 26.5 t-8.5 32.5zM514 385q0 -25 17.5 -41t41.5 -16h420q25 0 42.5 16t17.5 41v586q0 23 -17.5 40t-40.5 17h-2h-420q-25 0 -42 -17.5t-17 -39.5v-586zM547 1507v140q0 14 9 28.5t22 22.5l411 227q12 8 21.5 3t9.5 -19v-267q0 -14 -9.5 -26t-25.5 -17l-403 -114q-35 -11 -35 22z " />
<glyph unicode="&#xd4;" d="M53 274v807q0 14 7.5 30.5t17.5 27.5l225 217q10 10 27.5 17t34.5 7h835q16 0 33.5 -7t28.5 -17l217 -217q10 -10 17 -26.5t7 -31.5v-807q0 -16 -7 -32.5t-17 -26.5l-228 -215q-10 -10 -27.5 -17.5t-31.5 -7.5h-827q-16 0 -34 7.5t-28 17.5l-225 215q-25 24 -25 59z M444 1509v148q0 14 8.5 29.5t22.5 21.5l273 164q12 8 30.5 8t30.5 -8l272 -164q12 -6 21.5 -21.5t9.5 -29.5v-148q0 -14 -10 -21t-25 -3l-264 71q-16 4 -35.5 4.5t-34.5 -4.5l-264 -71q-16 -4 -25.5 3t-9.5 21zM508 385q0 -25 17.5 -41t41.5 -16h422q25 0 42.5 16t17.5 41 v586q0 23 -17.5 40t-42.5 17h-422q-25 0 -42 -17.5t-17 -39.5v-586z" />
<glyph unicode="&#xd5;" d="M55 274q0 -16 8.5 -32.5t18.5 -26.5l225 -215q10 -10 27.5 -17.5t32.5 -7.5h827q16 0 33.5 7.5t27.5 17.5l226 215q25 25 24 59v807q0 14 -7 30.5t-17 27.5l-215 217q-10 10 -28.5 17t-33.5 7h-837q-14 0 -32 -7t-28 -17l-225 -217q-10 -10 -18.5 -26.5t-8.5 -31.5v-807z M279 1550v150q0 14 8 28.5t22 22.5l273 164q12 8 29.5 8t31.5 -8l272 -164q14 -4 34 -4t34 4l266 74q14 4 24.5 -3t10.5 -22v-149q0 -14 -9 -28.5t-22 -23.5l-272 -163q-14 -8 -31.5 -8.5t-29.5 8.5l-273 163q-16 4 -35.5 4.5t-33.5 -4.5l-265 -73q-34 -7 -34 24zM512 385 v586q0 23 16.5 40t40.5 17h422q25 0 42.5 -17.5t17.5 -39.5v-586q0 -25 -17.5 -41t-42.5 -16h-422q-25 0 -41 16t-16 41z" />
<glyph unicode="&#xd6;" horiz-adv-x="1572" d="M72 274v807q0 14 7 30.5t17 27.5l228 217q10 10 27.5 17t31.5 7h838q14 0 31.5 -7t27.5 -17l217 -217q10 -10 17.5 -26.5t7.5 -31.5v-807q0 -35 -25 -59l-225 -215q-10 -10 -27.5 -17.5t-34.5 -7.5h-827q-14 0 -31.5 7.5t-27.5 17.5l-228 215q-24 24 -24 59zM334 1518 v307q0 33 35 33h325q16 0 26.5 -9.5t10.5 -23.5v-307q0 -14 -10 -23.5t-27 -9.5h-325q-35 0 -35 33zM526 385q0 -25 17.5 -41t42.5 -16h422q25 0 42 16t17 41v586q0 23 -17.5 40t-41.5 17h-422q-25 0 -42.5 -17.5t-17.5 -39.5v-586zM862 1518v307q0 14 10.5 23.5t26.5 9.5 h326q35 0 35 -33v-307q0 -33 -35 -33h-326q-16 0 -26.5 9.5t-10.5 23.5z" />
<glyph unicode="&#xd7;" horiz-adv-x="1120" d="M55 481.5q0 14.5 11 24.5l204 196q10 10 10.5 23.5t-10.5 24.5l-204 196q-25 25 0 49l213 205q10 10 25 10t26 -10l157 -151l48 -48q10 -10 25 -10t26 10l205 199q10 10 25 10t26 -10l213 -205q25 -25 0 -49l-205 -196q-10 -10 -10 -23.5t10 -24.5l205 -196 q10 -10 10 -24.5t-10 -24.5l-213 -205q-10 -10 -25.5 -10t-25.5 10l-205 197q-10 10 -25.5 10t-25.5 -10l-205 -197q-10 -10 -25.5 -10t-25.5 10l-213 205q-11 10 -11 24.5z" />
<glyph unicode="&#xd8;" horiz-adv-x="1746" d="M47 8l172 164l-47 43q-10 10 -17.5 26.5t-7.5 32.5v807q0 14 7.5 30.5t17.5 27.5l227 217q10 10 27.5 17t32.5 7h837q14 0 32 -7t28 -17l49 -49l168 159l125 -118l-170 -164l45 -45q10 -10 17 -26.5t7 -31.5v-807q0 -35 -24 -59l-225 -215q-10 -10 -27.5 -17.5 t-34.5 -7.5h-827q-14 0 -31.5 7.5t-28.5 17.5l-55 51l-170 -164zM602 539l506 483q-12 6 -25 6h-421q-25 0 -42.5 -17.5t-17.5 -39.5v-432zM637 332q16 -4 25 -4h421q25 0 42.5 16t17.5 41v430z" />
<glyph unicode="&#xd9;" horiz-adv-x="1466" d="M51 274q0 -16 7.5 -32.5t17.5 -26.5l225 -215q10 -10 28.5 -17.5t32.5 -7.5h752q16 0 33.5 7.5t28.5 17.5l225 215q25 25 24 59v1049q0 14 -10 24.5t-24 10.5h-379q-16 0 -26.5 -10.5t-10.5 -24.5v-938q0 -25 -17.5 -41t-42.5 -16h-354q-25 0 -42 16t-17 41v938 q0 14 -10.5 24.5t-24.5 10.5h-381q-14 0 -24.5 -10.5t-10.5 -24.5v-1049zM502 1642v267q0 14 9 19t21 -3l412 -227q12 -8 21.5 -22.5t9.5 -28.5v-140q0 -33 -35 -22l-403 114q-16 4 -25.5 16.5t-9.5 26.5z" />
<glyph unicode="&#xda;" horiz-adv-x="1466" d="M45 274v1049q0 14 10.5 24.5t24.5 10.5h379q16 0 26.5 -10.5t10.5 -24.5v-938q0 -25 17 -41t42 -16h354q25 0 42.5 16t17.5 41v938q0 14 10 24.5t25 10.5h380q14 0 24.5 -10.5t10.5 -24.5v-1049q0 -35 -24 -59l-228 -215q-10 -10 -27.5 -17.5t-31.5 -7.5h-752 q-16 0 -33.5 7.5t-27.5 17.5l-225 215q-25 24 -25 59zM496 1507v140q0 14 9 28.5t21 22.5l412 227q12 8 21.5 3t9.5 -19v-267q0 -14 -9.5 -26t-25.5 -17l-404 -114q-34 -11 -34 22z" />
<glyph unicode="&#xdb;" horiz-adv-x="1486" d="M57 274v1049q0 14 10.5 24.5t24.5 10.5h381q14 0 24.5 -10.5t10.5 -24.5v-938q0 -25 17.5 -41t41.5 -16h355q25 0 42 16t17 41v938q0 14 10 24.5t27 10.5h379q14 0 24.5 -10.5t10.5 -24.5v-1049q0 -35 -25 -59l-225 -215q-10 -10 -27.5 -17.5t-34.5 -7.5h-751 q-14 0 -32 7.5t-28 17.5l-227 215q-10 10 -17.5 26.5t-7.5 32.5zM412 1509v148q0 14 8 29.5t20 21.5l275 164q12 8 29.5 8t29.5 -8l275 -164q12 -6 21 -21.5t9 -29.5v-148q0 -14 -10 -21t-25 -3l-266 71q-14 4 -33.5 4.5t-33.5 -4.5l-267 -71q-14 -4 -23 3t-9 21z" />
<glyph unicode="&#xdc;" horiz-adv-x="1466" d="M55 274v1049q0 14 10.5 24.5t24.5 10.5h381q14 0 24.5 -10.5t10.5 -24.5v-938q0 -25 17.5 -41t41.5 -16h355q25 0 42 16t17 41v938q0 14 10 24.5t25 10.5h381q14 0 24.5 -10.5t10.5 -24.5v-1049q0 -35 -25 -59l-227 -215q-10 -10 -27.5 -17.5t-32.5 -7.5h-751 q-14 0 -33 7.5t-29 17.5l-225 215q-25 24 -25 59zM279 1518v307q0 14 10 23.5t24 9.5h328q14 0 24.5 -9.5t10.5 -23.5v-307q0 -14 -10.5 -23.5t-24.5 -9.5h-328q-14 0 -24 9.5t-10 23.5zM809 1518v307q0 14 10 23.5t25 9.5h327q14 0 24.5 -9.5t10.5 -23.5v-307 q0 -14 -10 -23.5t-25 -9.5h-327q-14 0 -24.5 9.5t-10.5 23.5z" />
<glyph unicode="&#xdd;" horiz-adv-x="1724" d="M28 1348.5q5 9.5 19 9.5h457q14 0 29.5 -9.5t23.5 -21.5l289 -506q16 -29 35 0l288 506q8 12 23.5 21.5t30.5 9.5h456q14 0 19.5 -9.5t-2.5 -19.5l-574 -921q-8 -10 -14 -29t-6 -33v-313q0 -35 -35 -35h-408q-35 0 -34 35v313q0 14 -6.5 32.5t-14.5 29.5l-573 921 q-8 10 -3 19.5zM639 1507v140q0 14 8 28.5t23 22.5l411 227q12 8 21.5 3t9.5 -19v-267q0 -14 -10 -26t-25 -17l-405 -114q-33 -11 -33 22z" />
<glyph unicode="&#xe0;" d="M51 33q0 -16 10.5 -25.5t24.5 -9.5h375q16 0 26.5 9t10.5 26v311q0 14 9 24.5t25 10.5h484q14 0 24.5 -10.5t10.5 -24.5v-311q0 -16 10 -25.5t24 -9.5h371q35 0 35 35v1048q0 14 -7 30.5t-18 27.5l-215 217q-10 10 -28.5 17t-32.5 7h-828q-14 0 -32.5 -7t-28.5 -17 l-225 -217q-10 -10 -17.5 -26.5t-7.5 -31.5v-1048zM498 780v164q0 23 16 39t41 16h436q25 0 42.5 -16t17.5 -39v-164q0 -14 -10.5 -24.5t-24.5 -10.5h-484q-16 0 -25 10.5t-9 24.5zM535 1642v267q0 14 9 19t21 -3l412 -227q12 -8 21.5 -22.5t9.5 -28.5v-140q0 -33 -33 -22 l-406 114q-14 4 -24 16.5t-10 26.5z" />
<glyph unicode="&#xe1;" d="M57 33v1048q0 14 7.5 30.5t17.5 27.5l225 217q10 10 28.5 17t33.5 7h827q16 0 33.5 -7t27.5 -17l216 -217q10 -10 18 -26.5t8 -31.5l-2 -1048q0 -35 -35 -35h-370q-14 0 -24.5 9t-10.5 26v311q0 14 -10.5 24.5t-24.5 10.5h-483q-16 0 -25.5 -10.5t-9.5 -24.5v-311 q0 -16 -10.5 -25.5t-26.5 -9.5h-375q-14 0 -24.5 9.5t-10.5 25.5zM504 780q0 -14 9 -24.5t26 -10.5h483q14 0 24.5 10.5t10.5 24.5v164q0 23 -17.5 39t-42.5 16h-436q-23 0 -40 -16t-17 -39v-164zM549 1507v140q0 14 8 28.5t23 22.5l411 227q12 8 21.5 3t9.5 -19v-267 q0 -14 -10.5 -26t-24.5 -17l-405 -114q-33 -11 -33 22z" />
<glyph unicode="&#xe2;" horiz-adv-x="1529" d="M49 33v1048q0 14 7 30.5t18 27.5l227 217q10 10 27.5 17t31.5 7h828q16 0 33.5 -7t27.5 -17l215 -217q10 -10 18.5 -26.5t8.5 -31.5v-1048q0 -16 -10.5 -25.5t-26.5 -9.5h-369q-16 0 -26 9t-10 26v311q0 14 -9.5 24.5t-25.5 10.5h-484q-14 0 -24 -10.5t-10 -24.5v-311 q0 -16 -10.5 -25.5t-26.5 -9.5h-375q-14 0 -24.5 9.5t-10.5 25.5zM436 1509v148q0 14 9.5 29.5t21.5 21.5l272 164q12 8 30.5 8t31.5 -8l272 -164q12 -6 21.5 -21.5t9.5 -29.5v-148q0 -14 -10.5 -21t-24.5 -3l-264 71q-16 4 -35.5 4.5t-34.5 -4.5l-264 -71q-16 -4 -25.5 3 t-9.5 21zM496 780q0 -14 10 -24.5t24 -10.5h484q16 0 25.5 10.5t9.5 24.5v164q0 23 -17.5 39t-42.5 16h-434q-25 0 -42 -16t-17 -39v-164z" />
<glyph unicode="&#xe3;" d="M61 33q0 -35 35 -35h375q14 0 24.5 9t10.5 26v311q0 14 10 24.5t27 10.5h483q14 0 24.5 -10.5t10.5 -24.5v-311q0 -16 10 -25.5t25 -9.5h370q14 0 24.5 9t10.5 26v1048q0 14 -7 30.5t-17 27.5l-217 217q-10 10 -28 17t-32 7h-827q-16 0 -33.5 -7t-28.5 -17l-225 -217 q-10 -10 -17.5 -26.5t-7.5 -31.5v-1048zM279 1550v150q0 14 9 28.5t21 22.5l273 164q12 8 30.5 8t30.5 -8l272 -164q14 -4 34 -4t36 4l264 74q14 4 24.5 -3t10.5 -22v-149q0 -14 -9 -28.5t-22 -23.5l-272 -163q-14 -8 -31.5 -8.5t-29.5 8.5l-273 163q-16 4 -35.5 4.5 t-33.5 -4.5l-265 -73q-14 -4 -24 3t-10 21zM506 780v164q0 23 17.5 39t41.5 16h436q25 0 42.5 -16t17.5 -39v-164q0 -14 -10.5 -24.5t-24.5 -10.5h-483q-16 0 -26.5 10.5t-10.5 24.5z" />
<glyph unicode="&#xe4;" d="M63 33v1048q0 14 7.5 30.5t17.5 27.5l227 217q10 10 27.5 17t32.5 7h827q16 0 33.5 -7t28.5 -17l215 -217q10 -10 18 -26.5t8 -31.5v-1048q0 -16 -10 -25.5t-27 -9.5h-368q-16 0 -26.5 9t-10.5 26v311q0 14 -9.5 24.5t-25.5 10.5h-483q-14 0 -24.5 -10.5t-10.5 -24.5 v-311q0 -16 -10.5 -25.5t-26.5 -9.5h-375q-14 0 -24.5 9.5t-10.5 25.5zM322 1518v307q0 33 34 33h326q16 0 26.5 -9.5t10.5 -23.5v-307q0 -14 -10.5 -23.5t-26.5 -9.5h-326q-34 0 -34 33zM510 780q0 -14 10 -24.5t25 -10.5h483q16 0 25.5 10.5t9.5 24.5v164q0 23 -17.5 39 t-39.5 16h-2h-435q-25 0 -42 -16t-17 -39v-164zM850 1518v307q0 14 10 23.5t27 9.5h325q35 0 35 -33v-307q0 -33 -35 -33h-325q-16 0 -26.5 9.5t-10.5 23.5z" />
<glyph unicode="&#xe5;" d="M63 33v1048q0 14 7.5 30.5t17.5 27.5l225 217q10 10 27.5 17t34.5 7h63v4q0 68 27 128.5t74 105.5t110.5 70.5t134.5 25.5q72 0 134.5 -25.5t109.5 -70.5t73.5 -105.5t26.5 -128.5v-4h74q14 0 31.5 -7t28.5 -17l217 -217q10 -10 17 -26.5t7 -31.5v-1048q0 -35 -35 -35 h-370q-14 0 -24.5 9t-10.5 26v301q0 14 -10.5 23.5t-24.5 9.5h-483q-16 0 -26.5 -9.5t-10.5 -23.5v-301q0 -35 -35 -35h-375q-14 0 -24.5 9.5t-10.5 25.5zM508 768q0 -14 10 -23.5t27 -9.5h483q14 0 24.5 9.5t10.5 23.5v176q0 23 -17.5 39t-41.5 16h-437q-25 0 -42 -16 t-17 -39v-176zM664 1380q2 -47 36.5 -78.5t83.5 -31.5q47 0 82 31.5t37 78.5v4q0 47 -34.5 81t-84.5 34q-51 0 -85.5 -33.5t-34.5 -81.5v-4z" />
<glyph unicode="&#xe6;" horiz-adv-x="2263" d="M68 33v1026q0 14 7 30.5t17 26.5l227 217q10 10 28 17.5t32 7.5h1798q14 0 24.5 -10.5t10.5 -24.5v-285q0 -14 -10.5 -23t-24.5 -9h-713q-16 0 -26.5 -10.5t-10.5 -24.5v-97q0 -14 10.5 -23t26.5 -9h426q14 0 24.5 -10.5t10.5 -24.5v-258q0 -16 -10 -25.5t-25 -9.5h-426 q-16 0 -26.5 -10t-10.5 -25v-94q0 -16 10.5 -25.5t26.5 -9.5h713q14 0 24.5 -10t10.5 -25v-282q0 -16 -10.5 -25.5t-24.5 -9.5h-1145q-10 0 -14 2q-14 6 -21 23v10v311q0 14 -10 24.5t-26 10.5h-412q-14 0 -24.5 -10.5t-10.5 -24.5v-311q0 -16 -10 -25.5t-27 -9.5h-375 q-14 0 -24 9.5t-10 25.5zM514 780q0 -14 10.5 -24.5t24.5 -10.5h412q16 0 26 10.5t10 24.5v142q0 23 -17 39t-42 16h-365q-25 0 -42 -16.5t-17 -38.5v-142z" />
<glyph unicode="&#xe7;" horiz-adv-x="1466" d="M88 276v807q0 16 7 31.5t16 26.5l217 221q18 18 57 18h711q14 0 30.5 -4t26.5 -14l207 -221q10 -10 18 -25.5t8 -32.5v-118q0 -33 -32 -33h-371q-33 0 -33 33v6q0 25 -16 41t-39 16h-315q-25 0 -40.5 -16.5t-15.5 -40.5v-588q0 -23 15.5 -39t40.5 -16h315q23 0 39 16 t16 39v29q0 12 8.5 21t24.5 9h371q14 0 23 -9t9 -21v-136q0 -12 -8 -31.5t-18 -29.5l-213 -213q-10 -10 -26.5 -18.5t-30.5 -8.5h-201q-31 0 -21 -30l43 -76q4 -14 8.5 -34.5t4.5 -35.5v-133q0 -14 -8.5 -24.5t-20.5 -10.5h-336q-14 0 -24.5 10.5t-10.5 24.5v133 q0 14 10.5 26.5t24.5 12.5h133q14 0 21.5 8.5t-2.5 22.5l-31 76q-4 14 -20.5 22t-28.5 8h-246q-16 0 -31.5 8.5t-25.5 18.5l-217 213q-8 10 -15.5 29.5t-7.5 31.5z" />
<glyph unicode="&#xe8;" horiz-adv-x="1380" d="M63 33q0 -16 10.5 -25.5t24.5 -9.5h1192q16 0 26.5 9t10.5 26v282q0 14 -10 24.5t-27 10.5h-760q-35 0 -34 35v94q0 14 9 24.5t25 10.5h402q16 0 26.5 9t10.5 26v258q0 14 -10.5 24.5t-26.5 10.5h-402q-35 0 -34 32v97q0 14 9 24.5t25 10.5h760q16 0 26.5 9t10.5 23v285 q0 14 -10 24.5t-27 10.5h-1192q-14 0 -24.5 -10.5t-10.5 -24.5v-1290zM459 1642v267q0 33 30 16l412 -227q12 -8 21.5 -22.5t9.5 -28.5v-140q0 -14 -10.5 -20t-24.5 -2l-405 114q-14 4 -23.5 16.5t-9.5 26.5z" />
<glyph unicode="&#xe9;" horiz-adv-x="1380" d="M61 33v1290q0 14 10.5 24.5t24.5 10.5h1192q16 0 25.5 -10.5t9.5 -24.5v-285q0 -33 -35 -32h-760q-16 0 -25 -10.5t-9 -24.5v-97q0 -33 34 -32h402q16 0 26.5 -10.5t10.5 -24.5v-258q0 -16 -10.5 -25.5t-26.5 -9.5h-402q-16 0 -25 -10t-9 -25v-94q0 -35 34 -35h760 q16 0 25.5 -10t9.5 -25v-282q0 -35 -35 -35h-1192q-14 0 -24.5 9.5t-10.5 25.5zM457 1507v140q0 14 8 28.5t22 22.5l412 227q12 8 21.5 3t9.5 -19v-267q0 -14 -10.5 -26t-24.5 -17l-406 -114q-32 -11 -32 22z" />
<glyph unicode="&#xea;" horiz-adv-x="1380" d="M59 33v1290q0 14 10.5 24.5t24.5 10.5h1192q16 0 25.5 -10.5t9.5 -24.5v-285q0 -33 -35 -32h-760q-16 0 -25 -10.5t-9 -24.5v-97q0 -33 34 -32h402q16 0 26.5 -10.5t10.5 -24.5v-258q0 -16 -10.5 -25.5t-26.5 -9.5h-402q-16 0 -25 -10t-9 -25v-94q0 -35 34 -35h760 q16 0 25.5 -10t9.5 -25v-282q0 -35 -35 -35h-1192q-14 0 -24.5 9.5t-10.5 25.5zM356 1509v148q0 14 9.5 29.5t21.5 21.5l272 164q14 8 32 8t30 -8l272 -164q12 -6 21.5 -21.5t9.5 -29.5v-148q0 -14 -9 -21t-26 -3l-264 71q-14 4 -33.5 4.5t-36.5 -4.5l-264 -71 q-14 -4 -24.5 3t-10.5 21z" />
<glyph unicode="&#xeb;" horiz-adv-x="1380" d="M66 33v1290q0 14 10 24.5t26 10.5h1192q14 0 24.5 -10.5t10.5 -24.5v-285q0 -14 -10 -23t-25 -9h-762q-14 0 -24 -10.5t-10 -24.5v-97q0 -14 10 -23t24 -9h404q14 0 24.5 -10.5t10.5 -24.5v-258q0 -16 -10.5 -25.5t-24.5 -9.5h-404q-14 0 -24 -10t-10 -25v-94 q0 -16 10 -25.5t24 -9.5h762q14 0 24.5 -10t10.5 -25v-282q0 -16 -10 -25.5t-25 -9.5h-1192q-16 0 -26 9.5t-10 25.5zM233 1518v307q0 14 10.5 23.5t26.5 9.5h326q14 0 24.5 -9.5t10.5 -23.5v-307q0 -14 -10.5 -23.5t-24.5 -9.5h-326q-16 0 -26.5 9.5t-10.5 23.5zM764 1518 v307q0 14 10 23.5t25 9.5h327q14 0 24.5 -9.5t10.5 -23.5v-307q0 -14 -10 -23.5t-25 -9.5h-327q-14 0 -24.5 9.5t-10.5 23.5z" />
<glyph unicode="&#xec;" horiz-adv-x="604" d="M72 1642v267q0 14 9 19t21 -3l412 -227q14 -8 22.5 -22.5t8.5 -28.5v-140q0 -33 -33 -22l-406 114q-14 4 -24 16.5t-10 26.5zM111 33v1290q0 14 10 24.5t26 10.5h361q14 0 24.5 -10.5t10.5 -24.5v-1290q0 -16 -10.5 -25.5t-24.5 -9.5h-361q-16 0 -26 9.5t-10 25.5z" />
<glyph unicode="&#xed;" horiz-adv-x="581" d="M61 33v1290q0 14 9.5 24.5t25.5 10.5h361q16 0 25.5 -10.5t9.5 -24.5v-1290q0 -35 -35 -35h-361q-35 0 -35 35zM61 1507v140q0 14 8.5 28.5t22.5 22.5l412 227q12 8 21.5 3t9.5 -19v-267q0 -14 -10.5 -26t-24.5 -17l-406 -114q-33 -11 -33 22z" />
<glyph unicode="&#xee;" horiz-adv-x="753" d="M47 1509v148q0 14 9.5 29.5t21.5 21.5l272 164q12 8 30.5 8t31.5 -8l272 -164q12 -6 21.5 -21.5t9.5 -29.5v-148q0 -14 -9.5 -21t-25.5 -3l-264 71q-14 4 -34 4.5t-36 -4.5l-264 -71q-14 -4 -24.5 3t-10.5 21zM166 33v1290q0 14 10 24.5t25 10.5h360q16 0 25.5 -10.5 t9.5 -24.5v-1290q0 -35 -35 -35h-360q-14 0 -24.5 9.5t-10.5 25.5z" />
<glyph unicode="&#xef;" horiz-adv-x="561" d="M70 33v1290q0 14 10 24.5t24 10.5h361q16 0 26.5 -10.5t10.5 -24.5v-1290q0 -16 -10.5 -25.5t-26.5 -9.5h-361q-14 0 -24 9.5t-10 25.5zM-180 1518v307q0 33 35 33h325q16 0 26.5 -9.5t10.5 -23.5v-307q0 -14 -10 -23.5t-27 -9.5h-325q-35 0 -35 33zM348 1518v307 q0 14 10.5 23.5t26.5 9.5h326q35 0 35 -33v-307q0 -33 -35 -33h-326q-16 0 -26.5 9.5t-10.5 23.5z" />
<glyph unicode="&#xf1;" horiz-adv-x="1529" d="M59 33q0 -16 10.5 -25.5t24.5 -9.5h361q16 0 26.5 9t10.5 26v663q0 33 20 6l528 -677q10 -10 26.5 -18.5t31.5 -8.5h360q35 0 35 35v1290q0 14 -9 24.5t-26 10.5h-360q-14 0 -24.5 -10.5t-10.5 -24.5v-664q0 -16 -6 -17t-17 9l-528 678q-23 29 -57 29h-361 q-14 0 -24.5 -10.5t-10.5 -24.5v-1290zM274 1550v150q0 33 29 51l275 164q12 8 29.5 8t29.5 -8l274 -164q14 -4 34 -4t34 4l266 74q14 4 24.5 -3t10.5 -22v-149q0 -14 -9 -28.5t-22 -23.5l-274 -163q-12 -8 -29.5 -8.5t-30.5 8.5l-274 163q-14 4 -33.5 4.5t-34.5 -4.5 l-266 -73q-33 -9 -33 24z" />
<glyph unicode="&#xf2;" horiz-adv-x="1572" d="M66 274q0 -35 24 -59l225 -215q10 -10 27.5 -17.5t34.5 -7.5h827q14 0 31.5 7.5t28.5 17.5l227 215q10 10 17.5 26.5t7.5 32.5v807q0 14 -7.5 30.5t-17.5 27.5l-217 217q-10 10 -27.5 17t-34.5 7h-835q-16 0 -33.5 -7t-28.5 -17l-225 -217q-10 -10 -17 -26.5t-7 -31.5 v-807zM520 385v586q0 23 17.5 40t42.5 17h421q25 0 42.5 -17.5t17.5 -39.5v-586q0 -25 -17.5 -41t-42.5 -16h-421q-25 0 -42.5 16t-17.5 41zM553 1642v267q0 14 9 19t22 -3l411 -227q14 -8 22.5 -22.5t8.5 -28.5v-140q0 -33 -33 -22l-405 114q-14 4 -24.5 16.5t-10.5 26.5z " />
<glyph unicode="&#xf3;" horiz-adv-x="1572" d="M57 274v807q0 14 8.5 30.5t18.5 27.5l225 217q10 10 27.5 17t34.5 7h835q16 0 33.5 -7t28.5 -17l215 -217q10 -10 18 -26.5t8 -31.5v-807q0 -16 -8 -32.5t-18 -26.5l-226 -215q-10 -10 -27.5 -17.5t-33.5 -7.5h-825q-16 0 -34 7.5t-28 17.5l-225 215q-10 10 -18.5 26.5 t-8.5 32.5zM514 385q0 -25 17.5 -41t41.5 -16h420q25 0 42.5 16t17.5 41v586q0 23 -17.5 40t-40.5 17h-2h-420q-25 0 -42 -17.5t-17 -39.5v-586zM547 1507v140q0 14 9 28.5t22 22.5l411 227q12 8 21.5 3t9.5 -19v-267q0 -14 -9.5 -26t-25.5 -17l-403 -114q-35 -11 -35 22z " />
<glyph unicode="&#xf4;" d="M53 274v807q0 14 7.5 30.5t17.5 27.5l225 217q10 10 27.5 17t34.5 7h835q16 0 33.5 -7t28.5 -17l217 -217q10 -10 17 -26.5t7 -31.5v-807q0 -16 -7 -32.5t-17 -26.5l-228 -215q-10 -10 -27.5 -17.5t-31.5 -7.5h-827q-16 0 -34 7.5t-28 17.5l-225 215q-25 24 -25 59z M444 1509v148q0 14 8.5 29.5t22.5 21.5l273 164q12 8 30.5 8t30.5 -8l272 -164q12 -6 21.5 -21.5t9.5 -29.5v-148q0 -14 -10 -21t-25 -3l-264 71q-16 4 -35.5 4.5t-34.5 -4.5l-264 -71q-16 -4 -25.5 3t-9.5 21zM508 385q0 -25 17.5 -41t41.5 -16h422q25 0 42.5 16t17.5 41 v586q0 23 -17.5 40t-42.5 17h-422q-25 0 -42 -17.5t-17 -39.5v-586z" />
<glyph unicode="&#xf5;" d="M55 274q0 -16 8.5 -32.5t18.5 -26.5l225 -215q10 -10 27.5 -17.5t32.5 -7.5h827q16 0 33.5 7.5t27.5 17.5l226 215q25 25 24 59v807q0 14 -7 30.5t-17 27.5l-215 217q-10 10 -28.5 17t-33.5 7h-837q-14 0 -32 -7t-28 -17l-225 -217q-10 -10 -18.5 -26.5t-8.5 -31.5v-807z M279 1550v150q0 14 8 28.5t22 22.5l273 164q12 8 29.5 8t31.5 -8l272 -164q14 -4 34 -4t34 4l266 74q14 4 24.5 -3t10.5 -22v-149q0 -14 -9 -28.5t-22 -23.5l-272 -163q-14 -8 -31.5 -8.5t-29.5 8.5l-273 163q-16 4 -35.5 4.5t-33.5 -4.5l-265 -73q-34 -7 -34 24zM512 385 v586q0 23 16.5 40t40.5 17h422q25 0 42.5 -17.5t17.5 -39.5v-586q0 -25 -17.5 -41t-42.5 -16h-422q-25 0 -41 16t-16 41z" />
<glyph unicode="&#xf6;" horiz-adv-x="1572" d="M72 274v807q0 14 7 30.5t17 27.5l228 217q10 10 27.5 17t31.5 7h838q14 0 31.5 -7t27.5 -17l217 -217q10 -10 17.5 -26.5t7.5 -31.5v-807q0 -35 -25 -59l-225 -215q-10 -10 -27.5 -17.5t-34.5 -7.5h-827q-14 0 -31.5 7.5t-27.5 17.5l-228 215q-24 24 -24 59zM334 1518 v307q0 33 35 33h325q16 0 26.5 -9.5t10.5 -23.5v-307q0 -14 -10 -23.5t-27 -9.5h-325q-35 0 -35 33zM526 385q0 -25 17.5 -41t42.5 -16h422q25 0 42 16t17 41v586q0 23 -17.5 40t-41.5 17h-422q-25 0 -42.5 -17.5t-17.5 -39.5v-586zM862 1518v307q0 14 10.5 23.5t26.5 9.5 h326q35 0 35 -33v-307q0 -33 -35 -33h-326q-16 0 -26.5 9.5t-10.5 23.5z" />
<glyph unicode="&#xf7;" horiz-adv-x="1439" d="M43 575v211q0 12 11.5 19.5t23.5 7.5h1225q29 0 28 -27v-211q0 -27 -28 -26h-1225q-12 0 -23.5 8t-11.5 18zM520 252q0 37 14.5 70.5t40 58.5t59.5 40t71 15q41 0 75.5 -15t60 -40t40 -58.5t14.5 -70.5q0 -82 -54.5 -136.5t-135.5 -54.5q-76 0 -130.5 54.5t-54.5 136.5z M520 1110q0 78 54.5 131t130.5 53q82 0 136 -53t54 -131q0 -39 -14.5 -74t-40 -60.5t-60.5 -39.5t-75 -14q-37 0 -71 14t-59.5 39.5t-40 60.5t-14.5 74z" />
<glyph unicode="&#xf8;" horiz-adv-x="1746" d="M47 8l172 164l-47 43q-10 10 -17.5 26.5t-7.5 32.5v807q0 14 7.5 30.5t17.5 27.5l227 217q10 10 27.5 17t32.5 7h837q14 0 32 -7t28 -17l49 -49l168 159l125 -118l-170 -164l45 -45q10 -10 17 -26.5t7 -31.5v-807q0 -35 -24 -59l-225 -215q-10 -10 -27.5 -17.5 t-34.5 -7.5h-827q-14 0 -31.5 7.5t-28.5 17.5l-55 51l-170 -164zM602 539l506 483q-12 6 -25 6h-421q-25 0 -42.5 -17.5t-17.5 -39.5v-432zM637 332q16 -4 25 -4h421q25 0 42.5 16t17.5 41v430z" />
<glyph unicode="&#xf9;" horiz-adv-x="1466" d="M51 274q0 -16 7.5 -32.5t17.5 -26.5l225 -215q10 -10 28.5 -17.5t32.5 -7.5h752q16 0 33.5 7.5t28.5 17.5l225 215q25 25 24 59v1049q0 14 -10 24.5t-24 10.5h-379q-16 0 -26.5 -10.5t-10.5 -24.5v-938q0 -25 -17.5 -41t-42.5 -16h-354q-25 0 -42 16t-17 41v938 q0 14 -10.5 24.5t-24.5 10.5h-381q-14 0 -24.5 -10.5t-10.5 -24.5v-1049zM502 1642v267q0 14 9 19t21 -3l412 -227q12 -8 21.5 -22.5t9.5 -28.5v-140q0 -33 -35 -22l-403 114q-16 4 -25.5 16.5t-9.5 26.5z" />
<glyph unicode="&#xfa;" horiz-adv-x="1466" d="M45 274v1049q0 14 10.5 24.5t24.5 10.5h379q16 0 26.5 -10.5t10.5 -24.5v-938q0 -25 17 -41t42 -16h354q25 0 42.5 16t17.5 41v938q0 14 10 24.5t25 10.5h380q14 0 24.5 -10.5t10.5 -24.5v-1049q0 -35 -24 -59l-228 -215q-10 -10 -27.5 -17.5t-31.5 -7.5h-752 q-16 0 -33.5 7.5t-27.5 17.5l-225 215q-25 24 -25 59zM496 1507v140q0 14 9 28.5t21 22.5l412 227q12 8 21.5 3t9.5 -19v-267q0 -14 -9.5 -26t-25.5 -17l-404 -114q-34 -11 -34 22z" />
<glyph unicode="&#xfb;" horiz-adv-x="1486" d="M57 274v1049q0 14 10.5 24.5t24.5 10.5h381q14 0 24.5 -10.5t10.5 -24.5v-938q0 -25 17.5 -41t41.5 -16h355q25 0 42 16t17 41v938q0 14 10 24.5t27 10.5h379q14 0 24.5 -10.5t10.5 -24.5v-1049q0 -35 -25 -59l-225 -215q-10 -10 -27.5 -17.5t-34.5 -7.5h-751 q-14 0 -32 7.5t-28 17.5l-227 215q-10 10 -17.5 26.5t-7.5 32.5zM412 1509v148q0 14 8 29.5t20 21.5l275 164q12 8 29.5 8t29.5 -8l275 -164q12 -6 21 -21.5t9 -29.5v-148q0 -14 -10 -21t-25 -3l-266 71q-14 4 -33.5 4.5t-33.5 -4.5l-267 -71q-14 -4 -23 3t-9 21z" />
<glyph unicode="&#xfc;" horiz-adv-x="1466" d="M55 274v1049q0 14 10.5 24.5t24.5 10.5h381q14 0 24.5 -10.5t10.5 -24.5v-938q0 -25 17.5 -41t41.5 -16h355q25 0 42 16t17 41v938q0 14 10 24.5t25 10.5h381q14 0 24.5 -10.5t10.5 -24.5v-1049q0 -35 -25 -59l-227 -215q-10 -10 -27.5 -17.5t-32.5 -7.5h-751 q-14 0 -33 7.5t-29 17.5l-225 215q-25 24 -25 59zM279 1518v307q0 14 10 23.5t24 9.5h328q14 0 24.5 -9.5t10.5 -23.5v-307q0 -14 -10.5 -23.5t-24.5 -9.5h-328q-14 0 -24 9.5t-10 23.5zM809 1518v307q0 14 10 23.5t25 9.5h327q14 0 24.5 -9.5t10.5 -23.5v-307 q0 -14 -10 -23.5t-25 -9.5h-327q-14 0 -24.5 9.5t-10.5 23.5z" />
<glyph unicode="&#xfd;" horiz-adv-x="1724" d="M28 1348.5q5 9.5 19 9.5h457q14 0 29.5 -9.5t23.5 -21.5l289 -506q16 -29 35 0l288 506q8 12 23.5 21.5t30.5 9.5h456q14 0 19.5 -9.5t-2.5 -19.5l-574 -921q-8 -10 -14 -29t-6 -33v-313q0 -35 -35 -35h-408q-35 0 -34 35v313q0 14 -6.5 32.5t-14.5 29.5l-573 921 q-8 10 -3 19.5zM639 1507v140q0 14 8 28.5t23 22.5l411 227q12 8 21.5 3t9.5 -19v-267q0 -14 -10 -26t-25 -17l-405 -114q-33 -11 -33 22z" />
<glyph unicode="&#xff;" horiz-adv-x="1724" d="M32 1348.5q5 9.5 19 9.5h457q14 0 29.5 -9.5t23.5 -21.5l289 -506q6 -12 17.5 -12t17.5 12l289 506q8 12 23 21.5t30 9.5h456q14 0 19.5 -9.5t-2.5 -19.5l-574 -921q-8 -10 -14 -29t-6 -33v-313q0 -35 -35 -35h-407q-16 0 -26.5 9t-10.5 26v313q0 14 -5.5 32.5 t-13.5 29.5l-573 921q-8 10 -3 19.5zM403 1518v307q0 14 10.5 23.5t24.5 9.5h328q14 0 24.5 -9.5t10.5 -23.5v-307q0 -14 -10.5 -23.5t-24.5 -9.5h-328q-14 0 -24.5 9.5t-10.5 23.5zM934 1518v307q0 14 10 23.5t25 9.5h325q16 0 26.5 -9.5t10.5 -23.5v-307q0 -14 -10 -23.5 t-27 -9.5h-325q-14 0 -24.5 9.5t-10.5 23.5z" />
<glyph unicode="&#x152;" horiz-adv-x="2177" d="M78 297v762q0 14 7 30.5t17 26.5l226 217q10 10 27.5 17.5t33.5 7.5h621h1065q16 0 26 -10.5t10 -24.5v-285q0 -14 -10 -23t-26 -9h-641q-16 0 -26.5 -10.5t-10.5 -24.5v-97q0 -14 10 -23t27 -9h378q14 0 24.5 -10.5t10.5 -24.5v-258q0 -16 -10 -25.5t-25 -9.5h-378 q-16 0 -26.5 -10t-10.5 -25v-94q0 -16 10 -25.5t27 -9.5h641q16 0 26 -10t10 -25v-282q0 -16 -10 -25.5t-26 -9.5h-1065h-9h-612q-16 0 -33.5 7t-27.5 18l-226 215q-10 10 -17 27.5t-7 31.5zM532 408q0 -25 17.5 -41.5t42.5 -16.5h375v656h-375q-25 0 -42.5 -17.5 t-17.5 -40.5v-540z" />
<glyph unicode="&#x153;" horiz-adv-x="2177" d="M78 297v762q0 14 7 30.5t17 26.5l226 217q10 10 27.5 17.5t33.5 7.5h621h1065q16 0 26 -10.5t10 -24.5v-285q0 -14 -10 -23t-26 -9h-641q-16 0 -26.5 -10.5t-10.5 -24.5v-97q0 -14 10 -23t27 -9h378q14 0 24.5 -10.5t10.5 -24.5v-258q0 -16 -10 -25.5t-25 -9.5h-378 q-16 0 -26.5 -10t-10.5 -25v-94q0 -16 10 -25.5t27 -9.5h641q16 0 26 -10t10 -25v-282q0 -16 -10 -25.5t-26 -9.5h-1065h-9h-612q-16 0 -33.5 7t-27.5 18l-226 215q-10 10 -17 27.5t-7 31.5zM532 408q0 -25 17.5 -41.5t42.5 -16.5h375v656h-375q-25 0 -42.5 -17.5 t-17.5 -40.5v-540z" />
<glyph unicode="&#x178;" horiz-adv-x="1724" d="M32 1348.5q5 9.5 19 9.5h457q14 0 29.5 -9.5t23.5 -21.5l289 -506q6 -12 17.5 -12t17.5 12l289 506q8 12 23 21.5t30 9.5h456q14 0 19.5 -9.5t-2.5 -19.5l-574 -921q-8 -10 -14 -29t-6 -33v-313q0 -35 -35 -35h-407q-16 0 -26.5 9t-10.5 26v313q0 14 -5.5 32.5 t-13.5 29.5l-573 921q-8 10 -3 19.5zM403 1518v307q0 14 10.5 23.5t24.5 9.5h328q14 0 24.5 -9.5t10.5 -23.5v-307q0 -14 -10.5 -23.5t-24.5 -9.5h-328q-14 0 -24.5 9.5t-10.5 23.5zM934 1518v307q0 14 10 23.5t25 9.5h325q16 0 26.5 -9.5t10.5 -23.5v-307q0 -14 -10 -23.5 t-27 -9.5h-325q-14 0 -24.5 9.5t-10.5 23.5z" />
<glyph unicode="&#x2c6;" horiz-adv-x="776" d="M57 1509v148q0 14 9.5 29.5t21.5 21.5l274 164q12 8 30 8t30 -8l274 -164q12 -6 20.5 -21.5t8.5 -29.5v-148q0 -14 -9 -21t-24 -3l-266 71q-14 4 -33.5 4.5t-34.5 -4.5l-266 -71q-14 -4 -24.5 3t-10.5 21z" />
<glyph unicode="&#x2dc;" horiz-adv-x="1099" d="M55 1550v150q0 14 9.5 28.5t21.5 22.5l272 164q12 8 30 8t32 -8l272 -164q14 -4 33.5 -4t34.5 4l266 74q14 4 24.5 -3t10.5 -22v-149q0 -14 -9.5 -28.5t-21.5 -23.5l-274 -163q-12 -8 -29.5 -8.5t-30.5 8.5l-274 163q-14 4 -33.5 4.5t-34.5 -4.5l-264 -73q-35 -7 -35 24z " />
<glyph unicode="&#x2000;" horiz-adv-x="964" />
<glyph unicode="&#x2001;" horiz-adv-x="1929" />
<glyph unicode="&#x2002;" horiz-adv-x="964" />
<glyph unicode="&#x2003;" horiz-adv-x="1929" />
<glyph unicode="&#x2004;" horiz-adv-x="643" />
<glyph unicode="&#x2005;" horiz-adv-x="481" />
<glyph unicode="&#x2006;" horiz-adv-x="321" />
<glyph unicode="&#x2007;" horiz-adv-x="321" />
<glyph unicode="&#x2008;" horiz-adv-x="239" />
<glyph unicode="&#x2009;" horiz-adv-x="385" />
<glyph unicode="&#x200a;" horiz-adv-x="106" />
<glyph unicode="&#x2010;" horiz-adv-x="948" d="M74 580v284q0 14 10 24.5t25 10.5h749q14 0 24.5 -10t10.5 -25v-284q0 -14 -10.5 -23.5t-24.5 -9.5h-749q-14 0 -24.5 9.5t-10.5 23.5z" />
<glyph unicode="&#x2011;" horiz-adv-x="948" d="M74 580v284q0 14 10 24.5t25 10.5h749q14 0 24.5 -10t10.5 -25v-284q0 -14 -10.5 -23.5t-24.5 -9.5h-749q-14 0 -24.5 9.5t-10.5 23.5z" />
<glyph unicode="&#x2012;" horiz-adv-x="948" d="M74 580v284q0 14 10 24.5t25 10.5h749q14 0 24.5 -10t10.5 -25v-284q0 -14 -10.5 -23.5t-24.5 -9.5h-749q-14 0 -24.5 9.5t-10.5 23.5z" />
<glyph unicode="&#x2013;" d="M63 580v284q0 14 10.5 24.5t24.5 10.5h1364q16 0 26.5 -10t10.5 -25v-284q0 -14 -10 -23.5t-27 -9.5h-1364q-14 0 -24.5 9.5t-10.5 23.5z" />
<glyph unicode="&#x2014;" horiz-adv-x="1746" d="M78 580v284q0 14 9 24.5t26 10.5h1546q16 0 26.5 -10t10.5 -25v-284q0 -14 -10.5 -23.5t-26.5 -9.5h-1546q-35 0 -35 33z" />
<glyph unicode="&#x2018;" horiz-adv-x="538" d="M53 1036v289q0 14 10.5 23.5t24.5 9.5h352q35 0 35 -33v-289q0 -12 -9 -21t-26 -9h-100q-14 0 -23.5 -10.5t-5.5 -22.5l35 -168q4 -14 -4 -23.5t-25 -9.5h-94q-14 0 -28.5 8t-20.5 21l-102 176q-8 10 -13.5 28.5t-5.5 30.5z" />
<glyph unicode="&#x2019;" horiz-adv-x="538" d="M53 1036v289q0 33 33 33h354q33 0 33 -33v-289q0 -12 -4 -30.5t-12 -28.5l-103 -176q-6 -12 -21.5 -20.5t-29.5 -8.5h-94q-14 0 -22.5 9.5t-4.5 23.5l35 168q2 12 -6 22.5t-23 10.5h-102q-14 0 -23.5 9t-9.5 21z" />
<glyph unicode="&#x201a;" horiz-adv-x="575" d="M78 31v331q0 33 33 33h354q33 0 33 -33v-331q0 -14 -4.5 -31.5t-12.5 -30.5l-102 -176q-6 -10 -20.5 -19.5t-30.5 -9.5h-95q-14 0 -22 9.5t-4 23.5l35 168q4 33 -29 33h-102q-33 0 -33 33z" />
<glyph unicode="&#x201c;" horiz-adv-x="1077" d="M76 1036v289q0 14 10 23.5t25 9.5h352q14 0 24.5 -9.5t10.5 -23.5v-289q0 -12 -10.5 -21t-24.5 -9h-103q-14 0 -22 -10.5t-4 -22.5l35 -168q4 -33 -29 -33h-94q-14 0 -28.5 8t-20.5 21l-105 176q-6 10 -11 28.5t-5 30.5zM590 1036v289q0 33 33 33h354q33 0 33 -33v-289 q0 -12 -9.5 -21t-23.5 -9h-103q-14 0 -22 -10.5t-6 -22.5l35 -168q4 -14 -4.5 -23.5t-22.5 -9.5h-94q-33 0 -51 29l-103 176q-8 10 -12 28.5t-4 30.5z" />
<glyph unicode="&#x201d;" horiz-adv-x="1056" d="M57 1036v289q0 14 10.5 23.5t24.5 9.5h352q14 0 24.5 -9.5t10.5 -23.5v-289q0 -12 -5 -30.5t-11 -28.5l-105 -176q-6 -12 -20 -20.5t-29 -8.5h-94q-16 0 -24.5 9.5t-4.5 23.5l35 168q4 12 -4 22.5t-24 10.5h-101q-14 0 -24.5 9t-10.5 21zM571 1036v289q0 33 33 33h354 q33 0 33 -33v-289q0 -12 -5 -30.5t-11 -28.5l-103 -176q-18 -29 -51 -29h-94q-14 0 -22.5 9.5t-4.5 23.5l33 168q4 12 -4 22.5t-22 10.5h-103q-14 0 -23.5 9t-9.5 21z" />
<glyph unicode="&#x201e;" horiz-adv-x="1069" d="M57 31v288q0 14 10.5 23.5t24.5 9.5h352q14 0 24.5 -9t10.5 -24v-288q0 -12 -5 -30.5t-11 -29.5l-105 -176q-6 -12 -20 -20t-29 -8h-94q-16 0 -24.5 9t-4.5 23l35 168q4 12 -4 22.5t-24 10.5h-101q-14 0 -24.5 9.5t-10.5 21.5zM571 31v288q0 33 33 33h354q33 0 33 -33 v-288q0 -12 -5 -30.5t-11 -29.5l-103 -176q-18 -29 -51 -28h-94q-14 0 -22.5 9t-4.5 23l33 168q4 12 -4 22.5t-22 10.5h-103q-14 0 -23.5 9.5t-9.5 21.5z" />
<glyph unicode="&#x2022;" horiz-adv-x="796" d="M59 700q0 68 28 128.5t75 105.5t109.5 70.5t134.5 25.5t134 -25.5t109 -70.5t74 -105.5t27 -128.5t-27 -128t-74 -105t-109.5 -70.5t-133.5 -25.5q-72 0 -134.5 25.5t-109.5 70.5t-75 105t-28 128z" />
<glyph unicode="&#x2026;" horiz-adv-x="1615" d="M61 33v327q0 14 9.5 24.5t25.5 10.5h350q14 0 24.5 -10t10.5 -25v-327q0 -16 -10 -25.5t-25 -9.5h-350q-35 0 -35 35zM594 33v327q0 14 9 24.5t26 10.5h350q14 0 24.5 -10t10.5 -25v-327q0 -16 -10.5 -25.5t-24.5 -9.5h-350q-35 0 -35 35zM1126 33v327q0 14 10.5 24.5 t24.5 10.5h350q16 0 25.5 -10t9.5 -25v-327q0 -35 -35 -35h-350q-14 0 -24.5 9.5t-10.5 25.5z" />
<glyph unicode="&#x202f;" horiz-adv-x="385" />
<glyph unicode="&#x2039;" horiz-adv-x="518" d="M43 701.5q0 17.5 8 27.5l172 262q8 12 23.5 20.5t29.5 8.5h156q14 0 21.5 -9.5t3.5 -23.5l-76 -254q-4 -12 -4 -31.5t4 -33.5l76 -254q4 -12 -3.5 -22.5t-21.5 -10.5h-156q-14 0 -29.5 9t-23.5 20l-172 262q-8 12 -8 29.5z" />
<glyph unicode="&#x203a;" horiz-adv-x="518" d="M51 414l76 254q4 14 4 33.5t-4 31.5l-76 254q-8 33 27 33h153q16 0 32 -8t24 -21l172 -262q8 -10 8 -27.5t-8 -29.5l-172 -262q-8 -10 -23.5 -19.5t-32.5 -9.5h-153q-16 0 -23.5 10.5t-3.5 22.5z" />
<glyph unicode="&#x2044;" horiz-adv-x="1024" d="M516 0q-4 -10 -15.5 -18.5t-25.5 -8.5h-301q-12 0 -19.5 8.5t-2.5 18.5l415 1354q4 10 15.5 18t23.5 8h303q12 0 18.5 -8t2.5 -18z" />
<glyph unicode="&#x205f;" horiz-adv-x="481" />
<glyph unicode="&#x20ac;" horiz-adv-x="1595" d="M57 573v215q0 14 10.5 24.5t24.5 10.5h107q16 0 26.5 9.5t10.5 23.5v225q0 14 7 30.5t17 27.5l225 217q10 10 27.5 17t34.5 7h694q14 0 31.5 -7t27.5 -17l218 -217q10 -10 17 -26.5t7 -31.5v-120q0 -14 -10 -23.5t-25 -9.5h-385q-14 0 -24.5 9t-10.5 24v10q0 23 -17 40 t-42 17h-278q-25 0 -42.5 -17.5t-17.5 -39.5v-115q0 -14 10.5 -23.5t24.5 -9.5h514q16 0 26.5 -10t10.5 -25v-215q0 -16 -10.5 -25t-26.5 -9h-514q-14 0 -24.5 -10.5t-10.5 -24.5v-119q0 -25 17.5 -41t42.5 -16h278q25 0 42 16t17 41v23q0 14 10.5 23t24.5 9h385 q14 0 24.5 -9t10.5 -23v-134q0 -35 -24 -59l-226 -215q-10 -10 -27.5 -17.5t-33.5 -7.5h-684q-16 0 -33.5 7.5t-28.5 17.5l-225 215q-25 25 -24 59v230q0 14 -10.5 24.5t-26.5 10.5h-107q-14 0 -24.5 9t-10.5 25z" />
<glyph unicode="&#x2122;" horiz-adv-x="1077" d="M82 1288v39q0 10 8 20.5t23 10.5h319q16 0 27.5 -10.5t11.5 -20.5v-39q0 -14 -11 -22.5t-28 -8.5h-61q-16 0 -27.5 -11t-11.5 -27v-220q0 -31 -31 -30h-51q-14 0 -25.5 8t-11.5 22v220q-2 10 -8 18q-4 8 -10.5 14t-12.5 6h-69q-31 0 -31 31zM520 999v328q0 10 8.5 20.5 t24.5 10.5h49q14 0 30.5 -7.5t26.5 -17.5l64 -88q10 -14 21.5 -14t15.5 14l69 88q4 10 19.5 17.5t30.5 7.5h51q14 0 25.5 -10.5t11.5 -20.5v-328q0 -14 -11.5 -22t-25.5 -8h-51q-31 0 -31 30v146q0 14 -7 15t-18 -9l-57 -70q-10 -14 -21.5 -14t-21.5 14l-64 70 q-18 18 -18 -6v-146q0 -14 -12.5 -22t-26.5 -8h-49q-33 -1 -33 30z" />
<glyph unicode="&#xfb01;" horiz-adv-x="1933" d="M1428 33v1290q0 14 10 24.5t24 10.5h361q16 0 26.5 -10.5t10.5 -24.5v-1290q0 -16 -10.5 -25.5t-26.5 -9.5h-361q-14 0 -24 9.5t-10 25.5zM76 25v8v381v909v2v2v2q0 4 2 6q0 2 2 4v2l4 5l4 4q2 0 2 1t2 1v2q4 0 6 2h6q2 2 7 2h1167q16 0 26.5 -10.5t10.5 -24.5v-285 q0 -14 -10.5 -23t-26.5 -9h-735q-16 0 -26.5 -10.5t-10.5 -24.5v-119q0 -14 10 -23.5t27 -9.5h401q16 0 25.5 -10t9.5 -25v-260q0 -33 -35 -32h-401q-16 0 -26.5 -10.5t-10.5 -24.5v-424q0 -35 -35 -35h-360q-27 0 -35 27z" />
<glyph unicode="&#xfb02;" horiz-adv-x="2672" d="M1419 33v1290q0 14 9.5 24.5t25.5 10.5h361q16 0 25.5 -10.5t9.5 -24.5v-938q0 -16 10 -25.5t26 -9.5h727q16 0 25.5 -10t9.5 -25v-282q0 -35 -35 -35h-1159q-35 0 -35 35zM76 25v8v381v909v2v2v2q0 4 2 6q0 2 2 4v2l4 5l4 4q2 0 2 1t2 1v2q4 0 6 2h6q2 2 7 2h1167 q16 0 26.5 -10.5t10.5 -24.5v-285q0 -14 -10.5 -23t-26.5 -9h-735q-16 0 -26.5 -10.5t-10.5 -24.5v-119q0 -14 10 -23.5t27 -9.5h401q16 0 25.5 -10t9.5 -25v-260q0 -33 -35 -32h-401q-16 0 -26.5 -10.5t-10.5 -24.5v-424q0 -35 -35 -35h-360q-27 0 -35 27z" />
<glyph unicode="&#xfb03;" horiz-adv-x="3291" d="M2786 33v1290q0 14 10 24.5t24 10.5h361q16 0 26.5 -10.5t10.5 -24.5v-1290q0 -16 -10.5 -25.5t-26.5 -9.5h-361q-14 0 -24 9.5t-10 25.5zM1434 25v8v381v909v2v2v2q0 4 2 6q0 2 2 4v2l4 5l4 4q2 0 2 1t2 1v2q4 0 6 2h6q2 2 7 2h1167q16 0 26.5 -10.5t10.5 -24.5v-285 q0 -14 -10.5 -23t-26.5 -9h-735q-16 0 -26.5 -10.5t-10.5 -24.5v-119q0 -14 10 -23.5t27 -9.5h401q16 0 25.5 -10t9.5 -25v-260q0 -33 -35 -32h-401q-16 0 -26.5 -10.5t-10.5 -24.5v-424q0 -35 -35 -35h-360q-27 0 -35 27zM76 25v8v381v909v2v2v2q0 4 2 6q0 2 2 4v2l4 5l4 4 q2 0 2 1t2 1v2q4 0 6 2h6q2 2 7 2h1167q16 0 26.5 -10.5t10.5 -24.5v-285q0 -14 -10.5 -23t-26.5 -9h-735q-16 0 -26.5 -10.5t-10.5 -24.5v-119q0 -14 10 -23.5t27 -9.5h401q16 0 25.5 -10t9.5 -25v-260q0 -33 -35 -32h-401q-16 0 -26.5 -10.5t-10.5 -24.5v-424 q0 -35 -35 -35h-360q-27 0 -35 27z" />
<glyph unicode="&#xfb04;" horiz-adv-x="4030" d="M2777 33v1290q0 14 9.5 24.5t25.5 10.5h361q16 0 25.5 -10.5t9.5 -24.5v-938q0 -16 10 -25.5t26 -9.5h727q16 0 25.5 -10t9.5 -25v-282q0 -35 -35 -35h-1159q-35 0 -35 35zM1434 25v8v381v909v2v2v2q0 4 2 6q0 2 2 4v2l4 5l4 4q2 0 2 1t2 1v2q4 0 6 2h6q2 2 7 2h1167 q16 0 26.5 -10.5t10.5 -24.5v-285q0 -14 -10.5 -23t-26.5 -9h-735q-16 0 -26.5 -10.5t-10.5 -24.5v-119q0 -14 10 -23.5t27 -9.5h401q16 0 25.5 -10t9.5 -25v-260q0 -33 -35 -32h-401q-16 0 -26.5 -10.5t-10.5 -24.5v-424q0 -35 -35 -35h-360q-27 0 -35 27zM76 25v8v381v909 v2v2v2q0 4 2 6q0 2 2 4v2l4 5l4 4q2 0 2 1t2 1v2q4 0 6 2h6q2 2 7 2h1167q16 0 26.5 -10.5t10.5 -24.5v-285q0 -14 -10.5 -23t-26.5 -9h-735q-16 0 -26.5 -10.5t-10.5 -24.5v-119q0 -14 10 -23.5t27 -9.5h401q16 0 25.5 -10t9.5 -25v-260q0 -33 -35 -32h-401 q-16 0 -26.5 -10.5t-10.5 -24.5v-424q0 -35 -35 -35h-360q-27 0 -35 27z" />
</font>
</defs>
</svg>
